<svg xmlns="http://www.w3.org/2000/svg" viewBox="0 0 512 512"><defs><style>.cls-4{stroke-miterlimit:10;stroke-width:16px;fill:#f9e3ae;stroke-linecap:round;stroke:#697074}.cls-7{fill:#687175}</style></defs><g stroke-miterlimit="10" stroke-width="16" stroke="#687175" id="Layer_3" data-name="Layer 3"><path d="M184 150c-16-1-63-9-26-54s109-56 112-57c9-1-9-18 12-23s14 17 21 17 57-5 93 13c32 16 55 69-37 91s-175 13-175 13z" fill="#aeb4b7"/><path d="M359 137c-92 21-175 13-175 13a92 92 0 01-19-4 128 128 0 00-1 14 124 124 0 10241-42c-10 8-25 14-46 19z" fill="#f9e3ae"/><path d="M72 496v-40c0-34 13-66 36-90a126 126 0 0190-38c12 0 21 3 31 6 15 5 31 10 59 10s44-5 59-10c10-3 19-6 31-6a126 126 0 0190 38c23 24 36 56 36 90v40" stroke-linecap="round" fill="#eb5424"/></g><g id="Layer_2" data-name="Layer 2"><path class="cls-4" d="M49 408a64 64 0 00110 0zM56 256a16 16 0 0116 16v12H40v-12a16 16 0 0116-16zM88 256a16 16 0 0116 16v12H72v-12a16 16 0 0116-16zM120 256a16 16 0 0116 16v12h-32v-12a16 16 0 0116-16zM152 256a16 16 0 0116 16v12h-32v-12a16 16 0 0116-16z"/><path d="M200 294a8 8 0 00-8-8H16a8 8 0 00-8 8v112a8 8 0 008 8h176a8 8 0 008-8z" fill="#faefde"/><path d="M200 287v4a16 16 0 01-16 16H24a16 16 0 01-16-16v-4z" fill="#fff7f0"/><path class="cls-7" d="M178 311v-8a4 4 0 00-8 0v8a4 4 0 008 0zm-20 0v-8a4 4 0 00-8 0v8a4 4 0 008 0zm-20 0v-8a4 4 0 00-8 0v8a4 4 0 008 0zm-40 0v-8a4 4 0 00-8 0v8a4 4 0 008 0zm20 0v-8a4 4 0 00-8 0v8a4 4 0 008 0zm-40 0v-8a4 4 0 00-8 0v8a4 4 0 008 0zm-20 0v-8a4 4 0 00-8 0v8a4 4 0 008 0zm-20 0v-8a4 4 0 00-8 0v8a4 4 0 008 0zm106 21a4 4 0 00-4-4h-32a4 4 0 000 8h32a4 4 0 004-4zm-40 16a4 4 0 004 4h48a4 4 0 000-8h-48a4 4 0 00-4 4zm0 16a4 4 0 004 4h40a4 4 0 000-8h-40a4 4 0 00-4 4zm48-32a4 4 0 004 4h12a4 4 0 000-8h-12a4 4 0 00-4 4z"/><g><path d="M77 369a36 36 0 0122 26H29a36 36 0 0121-26z" fill="#eb5424"/><path d="M84 351c0 11-9 24-20 24s-20-13-20-24v-4a20 20 0 0140 0z" fill="#f9e3ae"/><path class="cls-7" d="M29 394a4 4 0 001 1 4 4 0 004-3 32 32 0 0117-19 21 21 0 0013 6 20 20 0 0013-6 32 32 0 0117 19 4 4 0 004 3 4 4 0 001-1 4 4 0 003-5 40 40 0 00-19-22 31 31 0 005-16v-4a24 24 0 00-48 0v4a31 31 0 005 16 40 40 0 00-19 22 4 4 0 003 5zm19-43v-4a16 16 0 0132 0v4c0 9-7 20-16 20s-16-11-16-20z"/></g><path d="M200 295a8 8 0 00-8-8H16a8 8 0 00-8 8v112a8 8 0 008 8h176a8 8 0 008-8z" fill="none" stroke="#697074" stroke-miterlimit="10" stroke-width="16"/></g></svg>