<svg width="600" height="250" xmlns="http://www.w3.org/2000/svg"><g fill="none" fill-rule="evenodd"><path stroke="#FFF" stroke-width="1.987" d="M551.555 87.422l-20.323-12.515 19.221-10.708zM109.208 170.046l3.848 10.833-10.805-2.068z"/><path fill="#FFF" d="M454.121 100.073l6.361 17.368-17.682-3.379z"/><path d="M88.918 91.656h28.469c2.205 0 3.332 1.127 3.332 3.283v8.183c0 2.205-1.127 3.283-3.332 3.283H88.918c-2.205 0-3.332-1.127-3.332-3.283v-8.183c0-2.156 1.127-3.283 3.332-3.283zm28.126 6.027v-2.156c0-.735-.392-1.127-1.127-1.127H90.388c-.735 0-1.127.44-1.127 1.127v2.156h27.783zm0 2.597H89.261v2.303c0 .735.392 1.078 1.127 1.078h25.529c.784 0 1.127-.343 1.127-1.078v-2.303zm-15.533 12.348v22.638c0 .784-.784 1.323-1.813 1.323s-1.715-.54-1.715-1.323v-3.724c-2.842.539-3.773.686-5.439.882-2.107.294-9.114.93-9.947.93-1.274 0-2.009-.685-2.009-1.861 0-.686.392-1.274 1.029-1.421.294-.098.588-.098 1.568-.147.882 0 1.078-.05 1.911-.098v-17.2h-3.773c-.833 0-1.323-.587-1.323-1.567 0-.931.539-1.568 1.323-1.568h43.757c.784 0 1.323.637 1.323 1.617 0 .93-.49 1.519-1.323 1.519h-23.569zm-3.528 0h-9.408v3.626h9.408v-3.626zm0 6.125h-9.408v3.773h9.408v-3.773zm0 6.32h-9.408v4.558c2.842-.245 7.938-.784 9.408-.98v-3.577zm7.35-6.222h-1.225c-.735 0-1.225-.588-1.225-1.47s.49-1.47 1.225-1.47h16.709c1.862 0 2.842.686 2.842 2.009 0 2.254-3.136 7.35-6.762 10.976 2.156 1.568 4.753 2.842 8.183 3.969 1.078.343 1.519.833 1.519 1.715 0 1.078-.784 1.96-1.715 1.96-1.862 0-7.301-2.793-10.535-5.39-3.234 2.548-8.967 5.537-10.633 5.537-.882 0-1.568-.833-1.568-1.862 0-.931.294-1.225 1.764-1.764 2.401-.833 5.635-2.597 7.938-4.263-2.646-2.744-4.9-6.174-6.517-9.947zm13.034 0h-9.653c1.47 3.038 3.283 5.537 5.586 7.79 2.401-2.351 5.096-6.222 5.096-7.202 0-.392-.392-.588-1.029-.588zm21.168-8.428h-9.261c-.784 0-1.323-.637-1.323-1.666 0-.98.539-1.617 1.323-1.617h5.047c-.343-1.862-1.274-5.684-1.911-7.644h-2.303c-.833 0-1.372-.686-1.372-1.666 0-.98.539-1.666 1.372-1.666h8.379v-4.557c0-.882.735-1.52 1.813-1.52 1.029 0 1.813.638 1.813 1.52v4.557h8.183c.784 0 1.323.686 1.323 1.666 0 .98-.539 1.666-1.323 1.666h-1.911c-.637 2.842-1.323 5.194-2.205 7.644h4.998c.735 0 1.274.686 1.274 1.666 0 .93-.539 1.617-1.274 1.617h-9.114v4.998h8.575c.735 0 1.274.735 1.274 1.666 0 .93-.539 1.617-1.274 1.617h-8.575v1.813c2.94 1.764 4.312 2.695 7.546 5.096.686.49 1.029 1.029 1.029 1.617 0 .98-.882 1.862-1.813 1.862-.637 0-.882-.147-1.813-1.03a163.92 163.92 0 0 0-4.949-4.164v11.172c0 .882-.735 1.47-1.764 1.47-1.078 0-1.764-.588-1.764-1.47v-12.495c-2.254 3.626-4.459 6.517-7.007 9.114-1.176 1.225-1.519 1.42-2.303 1.42-.882 0-1.715-.832-1.715-1.763 0-.735.147-.98 1.519-2.254 2.793-2.5 6.174-6.615 8.428-10.388h-7.791c-.784 0-1.372-.686-1.372-1.617 0-.931.588-1.666 1.372-1.666h8.869v-4.998zm6.321-10.927h-8.967c.686 2.646 1.372 5.439 1.764 7.644h5.194c.735-2.107 1.47-4.851 2.009-7.644zm19.649 11.368h-6.958c0 7.203-.735 13.524-2.205 18.326-.588 1.91-1.911 5.096-2.597 6.37-.441.686-1.029 1.078-1.764 1.078-1.127 0-2.009-.784-2.009-1.813 0-.441 0-.441.931-2.45 2.793-6.076 4.018-12.936 4.018-22.393V98.76c0-2.842.98-3.97 3.724-4.214 4.802-.637 7.399-1.176 11.319-2.352 1.274-.392 1.47-.441 1.911-.441 1.127 0 1.911.833 1.911 1.96 0 1.47-1.127 1.96-6.713 2.94-.343.098-.686.147-1.225.245-3.185.588-4.606.784-6.076.882-.784.049-1.225.539-1.225 1.519v8.036h15.729c.833 0 1.47.735 1.47 1.764s-.588 1.764-1.47 1.764h-5.145v24.157c0 .882-.784 1.519-1.862 1.519s-1.764-.588-1.764-1.52v-24.156zm39.249-13.23l-.343-.05c-.98 9.507-2.989 17.592-5.978 23.913-2.989 6.468-5.88 9.31-9.457 9.31-5.145 0-9.163-6.37-9.163-14.553 0-7.742 3.969-14.847 10.486-18.865 3.332-2.058 7.301-3.136 11.613-3.136 12.054 0 20.286 7.742 20.286 19.012 0 6.86-2.401 12.152-7.203 15.68-2.597 1.91-7.595 4.165-9.31 4.165-1.029 0-1.813-.882-1.813-2.058 0-.98.343-1.323 1.813-1.764 8.33-2.548 12.397-7.791 12.397-16.023 0-8.624-5.096-14.602-13.328-15.631zm-4.116.833l.098-.98c-9.996.735-17.052 8.575-17.052 18.963 0 5.635 2.499 10.29 5.537 10.29 1.715 0 3.038-1.47 5.096-5.537 3.234-6.517 5.292-13.867 6.321-22.736zM315.677 111.134v14.1h9.5c2.3 0 3.9 1.9 3.9 4.6 0 2.7-1.6 4.6-3.9 4.6h-9.5v14.7h6.5c2.4 0 4 1.9 4 4.7 0 2.7-1.6 4.5-4 4.5h-82c-2.3 0-3.9-1.8-3.9-4.5 0-2.8 1.6-4.7 3.9-4.7h8.4v-14.7h-11.5c-2.3 0-3.9-1.9-3.9-4.6 0-2.7 1.6-4.6 3.9-4.6h11.5v-10.7c-4.3 5.3-6.5 7-8.9 7-2.6 0-5-2.4-5-5 0-1.8.4-2.5 3.1-5.2 3.4-3.5 8-9.5 13-17 1.5-2.2 2.7-3.1 4.6-3.1 2.5 0 4.9 2.2 4.9 4.6 0 1.3-.3 2.1-1.5 4-.4.5-.4.6-1.2 2h63.9c2.3 0 3.9 2 3.9 4.7s-1.6 4.6-3.9 4.6h-5.8zm-57.8 0v14.1h10.1v-14.1h-10.1zm19 0v14.1h10v-14.1h-10zm18.9 0v14.1h10.5v-14.1h-10.5zm10.5 23.3h-10.5v14.7h10.5v-14.7zm-19.4 0h-10v14.7h10v-14.7zm-18.9 0h-10.1v14.7h10.1v-14.7zm-18.5 26.6c2.9 0 5.4 2.4 5.4 5.2 0 2.1-2.1 6.6-5.9 12.4-3.8 5.9-5.7 7.6-8.2 7.6-2.8 0-5.6-2.7-5.6-5.5 0-1.3.5-2.4 1.8-4 2.6-3.2 5.3-7.6 7.8-12.5 1-2.1 2.7-3.2 4.7-3.2zm19.6.3c2.7 0 4.3 1.3 5.1 4.3 1.1 3.9 2.5 12.4 2.5 14.9 0 3-2.1 4.8-5.7 4.8-2.1 0-3.7-.9-4.4-2.3-.3-.6-.4-1-.7-2.6-.7-4.8-.9-6.1-2.1-12.5-.2-1-.3-1.6-.3-2.2 0-2.6 2.2-4.4 5.6-4.4zm21.4-.4c2 0 3.5 1 4.6 2.8 2.5 4.5 5.9 13.7 5.9 16.2 0 2.7-2.5 4.8-5.7 4.8-1.8 0-3.4-.8-4.2-2.2-.2-.4-.2-.4-.7-1.9-1.1-3.6-2.1-6-4.7-12.1-.6-1.5-.8-2.1-.8-3.1 0-2.6 2.4-4.5 5.6-4.5zm22.3-.5c2 0 3.2.8 5.1 3.3 6 8.5 8.9 13.7 8.9 16.1 0 2.9-2.4 5.1-5.6 5.1-1.7 0-3.3-.8-4.1-2.1-.1-.2-.1-.2-.8-1.4-2.5-4.6-2.9-5.4-7.8-12.8-.8-1.2-1.2-2.2-1.2-3.2 0-2.7 2.5-5 5.5-5zm39.7 21.9v-29.4c-3 6.4-6 11.8-10.2 18.1-1.2 1.9-2.7 2.8-4.5 2.8-2.7 0-5.1-2.3-5.1-5 0-1.7.3-2.4 2.9-5.6 4.7-5.9 10.9-16.7 14.9-25.6h-12.5c-2.3 0-3.9-2-3.9-4.9 0-3 1.6-5.1 3.9-5.1h14.5v-31.9c0-2.4 2-4 4.9-4 3.1 0 5.2 1.6 5.2 4v31.9h13.1c2.3 0 3.9 2 3.9 5.1 0 3-1.5 4.9-3.9 4.9h-13.1v4.7c5.7 4.8 11.2 9.9 14.1 13.2 1.9 2 2.3 2.9 2.3 4.6 0 2.6-2.2 4.9-4.8 4.9-2.1 0-3-.7-5.2-3.7-.9-1.2-4.8-6-6.4-7.8v28.8c0 2.4-2.1 4.1-5.2 4.1-3 0-4.9-1.6-4.9-4.1zm66.1-25.8v25.6c0 2.5-2.1 4.1-5.2 4.1s-5.1-1.6-5.1-4.1v-23.5l-22.6 4.5c-.6.1-1.3.2-1.7.2-2.7 0-4.7-2.4-4.7-5.5 0-2.5 1.4-4.1 3.9-4.6l25.1-4.9v-52.5c0-2.5 2-4.1 5.1-4.1 3 0 5.2 1.7 5.2 4.1v50.5l4.6-.9c.6-.1 1.3-.2 1.6-.2 2.9 0 4.7 2 4.7 5.2 0 2.5-1.4 4.2-3.7 4.7l-7.2 1.4zm-78.2-59.1c1.7 0 3.1 1 3.7 2.7 1.6 4.1 4.9 17 4.9 19 0 2.5-2 4.2-4.9 4.2-1.5 0-2.7-.7-3.4-2.1-.3-.6-.3-.7-.8-2.6-.8-3.2-1.3-5.4-1.7-6.5-.8-2.9-1.7-5.9-2.6-8.8-.2-.9-.3-1.2-.3-1.8 0-2.4 2.1-4.1 5.1-4.1zm34.6-.2c2.8 0 4.8 1.7 4.8 4.1 0 2.1-2.6 11-5.1 17.5-1.4 3.5-2.2 4.3-4.5 4.3-2.8 0-4.7-1.6-4.7-3.9 0-.8.1-1 .8-2.9 1.4-3.5 3.5-10.7 4.6-15.1.6-2.7 1.9-4 4.1-4zm13 1.7c1.8 0 2.8.6 6.5 3.8 2.5 2.1 5.5 5.1 8 8 1.2 1.3 1.7 2.6 1.7 4 0 2.5-2.4 4.8-5.1 4.8-1.7 0-2.7-.5-4.5-2.5-2-2.3-5.3-5.5-9.5-9.2-1.5-1.4-2.1-2.4-2.1-4 0-2.5 2.4-4.9 5-4.9zm-.8 23.7c1.5 0 2.5.4 4.1 1.8 8.8 7.4 12.2 11.4 12.2 14.2 0 2.5-2.5 4.8-5.3 4.8-1.8 0-2.6-.5-4.3-2.3-2.2-2.5-6.7-6.9-9.5-9.5-1.6-1.3-2.2-2.5-2.2-4 0-2.6 2.4-5 5-5zM459.189 175.878v9.912c0 .714-.63 1.218-1.554 1.218-.966 0-1.596-.462-1.596-1.218v-9.744l-.882.084c-3.066.168-10.458.378-13.692.378-2.268 0-2.73-.252-2.73-1.554 0-.756.294-1.176.924-1.302.294-.084.294-.084 3.024-.084l5.376-.042 5.586-.042c-2.646-2.058-4.62-3.486-6.132-4.41-.672-.42-.924-.756-.924-1.26 0-.756.672-1.47 1.386-1.47.588 0 .798.126 2.646 1.512a49.782 49.782 0 0 0 4.452-3.654c.21-.21.252-.252.42-.378h-16.212c-.714 0-1.092-.462-1.092-1.302 0-.84.42-1.344 1.092-1.344h16.758v-2.898h-13.188c-.588 0-1.008-.546-1.008-1.26 0-.756.42-1.26 1.008-1.26h13.188v-2.772h-15.162c-.63 0-1.008-.462-1.008-1.26s.378-1.26 1.008-1.26h15.162v-2.184c0-.714.672-1.176 1.596-1.176s1.554.462 1.554 1.176v2.184h15.246c.63 0 1.05.504 1.05 1.26s-.42 1.26-1.05 1.26h-15.246v2.772h13.23c.588 0 1.008.546 1.008 1.26s-.42 1.26-1.008 1.26h-13.23v2.898h16.884c.63 0 1.092.546 1.092 1.344s-.42 1.302-1.092 1.302h-18.648c.336.294.504.63.504 1.05 0 .882-.924 1.68-5.166 4.62 1.134.84 2.1 1.596 3.78 2.982l.252-.21.294-.21c1.806-1.26 4.83-3.654 6.972-5.586.672-.588 1.092-.798 1.596-.798.84 0 1.596.714 1.596 1.47 0 .378-.21.798-.672 1.176-1.134 1.008-4.452 3.36-7.014 4.998h1.26c2.856-.084 6.846-.252 9.87-.462-.042-.084-.378-.378-.504-.504l-.252-.21c-.21-.21-.546-.504-.882-.798-.546-.462-.714-.756-.714-1.176 0-.756.63-1.428 1.386-1.428.546 0 .84.126 1.47.714 4.662 3.948 5.922 5.292 5.922 6.3 0 .84-.714 1.554-1.596 1.554-.546 0-.756-.126-1.302-.756l-.882-1.008c-.126-.168-.294-.336-.42-.462l-.504.042c-.966.084-1.134.084-4.116.252-3.276.168-6.3.336-9.114.504zm-9.534 1.89c.756 0 1.512.756 1.512 1.554 0 .588-.252.882-1.092 1.47-4.536 3.108-8.526 5.292-9.786 5.292-.84 0-1.512-.714-1.512-1.596 0-.798.252-1.05 1.68-1.722 2.184-.924 5.712-2.94 8.064-4.578.42-.294.798-.42 1.134-.42zm16.002-.462c.714 0 3.234 1.092 6.72 2.94 3.654 1.932 4.284 2.436 4.284 3.36 0 .798-.756 1.596-1.512 1.596-.462 0-.588-.042-1.638-.63-3.57-2.016-4.704-2.604-8.19-4.284-.882-.42-1.134-.714-1.134-1.344 0-.84.714-1.638 1.47-1.638zm21.756 8.274v-19.908c-1.596 4.662-2.898 7.812-4.662 10.92-.42.756-.84 1.092-1.47 1.092-.84 0-1.596-.756-1.596-1.554 0-.462.084-.672.966-2.1 2.268-3.738 4.914-9.786 6.3-14.574h-5.544c-.714 0-1.218-.63-1.218-1.554s.504-1.512 1.218-1.512h6.006v-7.602c0-.756.672-1.302 1.596-1.302.882 0 1.554.546 1.554 1.302v7.602h4.998c.714 0 1.218.63 1.218 1.512 0 .924-.504 1.554-1.218 1.554h-4.998v3.528c2.184 2.016 4.326 4.242 5.796 5.964.504.588.672.966.672 1.428 0 .798-.756 1.512-1.554 1.512-.714 0-.882-.126-1.638-1.134-.882-1.26-1.806-2.436-3.276-4.326v19.152c0 .756-.672 1.26-1.596 1.26s-1.554-.504-1.554-1.26zm22.68-3.78v-18.06a64.11 64.11 0 0 1-10.374 14.07c-1.176 1.176-1.47 1.386-2.184 1.386-.84 0-1.596-.798-1.596-1.638 0-.63.126-.798 1.68-2.226 4.41-4.2 9.24-10.794 11.718-15.876h-10.332c-.756 0-1.302-.63-1.302-1.512 0-.924.546-1.554 1.302-1.554h11.088v-7.518c0-.84.63-1.386 1.554-1.386.966 0 1.596.546 1.596 1.386v7.518h5.04c.798 0 1.302.63 1.302 1.554 0 .882-.504 1.512-1.302 1.512h-5.04v23.52c0 2.73-1.008 3.486-4.62 3.486-4.998 0-6.174-.336-6.174-1.848 0-1.008.63-1.596 1.764-1.596.126 0 .252 0 .588.042 1.428.168 2.94.252 3.822.252 1.092 0 1.47-.378 1.47-1.512z" fill="#FFF" fill-rule="nonzero"/></g></svg>