<?xml version="1.0" encoding="UTF-8"?>
<svg width="600px" height="250px" viewBox="0 0 600 250" version="1.1" xmlns="http://www.w3.org/2000/svg" xmlns:xlink="http://www.w3.org/1999/xlink">
    <!-- Generator: Sketch 55.2 (78181) - https://sketchapp.com -->
    <title>subscription-banner-ko</title>
    <desc>Created with Sketch.</desc>
    <defs>
        <path d="M224.59375,147.03125 C220.53123,147.03125 216.781267,146.57813 213.34375,145.671875 C209.906233,144.76562 206.921888,143.500008 204.390625,141.875 C201.859362,140.249992 199.875007,138.312511 198.4375,136.0625 C196.999993,133.812489 196.28125,131.343763 196.28125,128.65625 C196.28125,126.156237 196.999993,123.796886 198.4375,121.578125 C199.875007,119.359364 201.859362,117.437508 204.390625,115.8125 C206.921888,114.187492 209.906233,112.906255 213.34375,111.96875 C216.781267,111.031245 220.53123,110.5625 224.59375,110.5625 C228.468769,110.5625 232.140608,111.01562 235.609375,111.921875 C239.078142,112.82813 242.124987,114.078117 244.75,115.671875 C247.375013,117.265633 249.468742,119.171864 251.03125,121.390625 C252.593758,123.609386 253.375,126.031237 253.375,128.65625 C253.375,131.343763 252.593758,133.812489 251.03125,136.0625 C249.468742,138.312511 247.375013,140.249992 244.75,141.875 C242.124987,143.500008 239.078142,144.76562 235.609375,145.671875 C232.140608,146.57813 228.468769,147.03125 224.59375,147.03125 Z M186.8125,110.375 C185.749995,110.875002 185.015627,111.031251 184.609375,110.84375 C184.203123,110.656249 183.843752,110.281253 183.53125,109.71875 L179.59375,103.25 C178.906247,102.249995 179.312493,101.375004 180.8125,100.625 C183.875015,98.9374916 186.843736,97.0156358 189.71875,94.859375 C192.593764,92.7031142 195.234363,90.4843864 197.640625,88.203125 C200.046887,85.9218636 202.140616,83.6406364 203.921875,81.359375 C205.703134,79.0781136 207.062495,76.9687597 208,75.03125 C208.500003,73.9687447 208.71875,73.2187522 208.65625,72.78125 C208.59375,72.34375 208.062505,72.125 207.0625,72.125 L186.4375,72.125 C185.562496,72.125 185.046876,71.9531267 184.890625,71.609375 C184.734374,71.2656233 184.65625,70.7812531 184.65625,70.15625 L184.65625,63.3125 C184.65625,61.9999934 185.281244,61.34375 186.53125,61.34375 L217.375,61.34375 C221.125019,61.34375 223.406246,62.2499909 224.21875,64.0625 C225.031254,65.8750091 224.906255,68.3749841 223.84375,71.5625 C222.156242,76.3750241 219.656267,81.0937269 216.34375,85.71875 C218.781262,88.0937619 221.437486,90.2187406 224.3125,92.09375 C227.187514,93.9687594 229.718739,95.5312437 231.90625,96.78125 C232.843755,97.34375 233.031253,98.0937453 232.46875,99.03125 L228.15625,105.96875 C227.843748,106.468752 227.515627,106.75 227.171875,106.8125 C226.828123,106.875 226.312503,106.750002 225.625,106.4375 C224.687495,105.937498 223.562507,105.281254 222.25,104.46875 C220.937493,103.656246 219.531258,102.70313 218.03125,101.609375 C216.531243,100.51562 215.015633,99.34375 213.484375,98.09375 C211.953117,96.84375 210.500007,95.5625066 209.125,94.25 C205.999984,97.3750156 202.578144,100.296861 198.859375,103.015625 C195.140606,105.734389 191.125022,108.187489 186.8125,110.375 Z M227.40625,88.25 C226.156244,88.25 225.53125,87.6250063 225.53125,86.375 L225.53125,79.4375 C225.53125,78.5624956 225.703123,78.0468758 226.046875,77.890625 C226.390627,77.7343742 226.843747,77.65625 227.40625,77.65625 L239.78125,77.65625 L239.78125,58.15625 C239.78125,57.3437459 239.968748,56.8437509 240.34375,56.65625 C240.718752,56.4687491 241.187497,56.375 241.75,56.375 L251.03125,56.375 C251.843754,56.375 252.328124,56.5468733 252.484375,56.890625 C252.640626,57.2343767 252.71875,57.6562475 252.71875,58.15625 L252.71875,106.71875 C252.71875,107.906256 252.125006,108.5 250.9375,108.5 L241.5625,108.5 C240.374994,108.5 239.78125,107.937506 239.78125,106.8125 L239.78125,88.25 L227.40625,88.25 Z M224.59375,120.78125 C219.906227,120.78125 216.234388,121.593742 213.578125,123.21875 C210.921862,124.843758 209.59375,126.749989 209.59375,128.9375 C209.59375,131.062511 210.921862,132.890617 213.578125,134.421875 C216.234388,135.953133 219.906227,136.71875 224.59375,136.71875 C226.781261,136.71875 228.812491,136.515627 230.6875,136.109375 C232.562509,135.703123 234.187493,135.140629 235.5625,134.421875 C236.937507,133.703121 238.015621,132.875005 238.796875,131.9375 C239.578129,130.999995 239.96875,130.000005 239.96875,128.9375 C239.96875,127.874995 239.578129,126.843755 238.796875,125.84375 C238.015621,124.843745 236.937507,123.968754 235.5625,123.21875 C234.187493,122.468746 232.562509,121.875002 230.6875,121.4375 C228.812491,120.999998 226.781261,120.78125 224.59375,120.78125 Z M343,108.03125 L333.71875,108.03125 C333.031247,108.03125 332.562501,107.906251 332.3125,107.65625 C332.062499,107.406249 331.9375,106.937503 331.9375,106.25 L331.9375,88.53125 L325.1875,88.53125 L325.1875,105.59375 C325.1875,106.343754 325.078126,106.828124 324.859375,107.046875 C324.640624,107.265626 324.187503,107.375 323.5,107.375 L314.59375,107.375 C313.906247,107.375 313.421876,107.265626 313.140625,107.046875 C312.859374,106.828124 312.71875,106.343754 312.71875,105.59375 L312.71875,59.65625 C312.71875,58.9687466 312.859374,58.5000012 313.140625,58.25 C313.421876,57.9999988 313.906247,57.875 314.59375,57.875 L323.5,57.875 C324.625006,57.875 325.1875,58.4687441 325.1875,59.65625 L325.1875,77.9375 L331.9375,77.9375 L331.9375,58.15625 C331.9375,57.4687466 332.078124,57.0000012 332.359375,56.75 C332.640626,56.4999988 333.124997,56.375 333.8125,56.375 L343,56.375 C343.687503,56.375 344.156249,56.4999988 344.40625,56.75 C344.656251,57.0000012 344.78125,57.4687466 344.78125,58.15625 L344.78125,106.25 C344.78125,106.937503 344.656251,107.406249 344.40625,107.65625 C344.156249,107.906251 343.687503,108.03125 343,108.03125 Z M286.9375,104.75 C283.749984,104.75 280.859388,104.171881 278.265625,103.015625 C275.671862,101.859369 273.453134,100.296885 271.609375,98.328125 C269.765616,96.3593652 268.34375,94.0312634 267.34375,91.34375 C266.34375,88.6562366 265.84375,85.7500156 265.84375,82.625 C265.84375,79.5624847 266.34375,76.7031383 267.34375,74.046875 C268.34375,71.3906117 269.765616,69.0781348 271.609375,67.109375 C273.453134,65.1406152 275.671862,63.5781308 278.265625,62.421875 C280.859388,61.2656192 283.749984,60.6875 286.9375,60.6875 C290.125016,60.6875 293.015612,61.2656192 295.609375,62.421875 C298.203138,63.5781308 300.406241,65.1406152 302.21875,67.109375 C304.031259,69.0781348 305.437495,71.3906117 306.4375,74.046875 C307.437505,76.7031383 307.9375,79.5624847 307.9375,82.625 C307.9375,85.7500156 307.437505,88.6562366 306.4375,91.34375 C305.437495,94.0312634 304.031259,96.3593652 302.21875,98.328125 C300.406241,100.296885 298.203138,101.859369 295.609375,103.015625 C293.015612,104.171881 290.125016,104.75 286.9375,104.75 Z M342.90625,146.09375 L333.625,146.09375 C332.312493,146.09375 331.65625,145.468756 331.65625,144.21875 L331.65625,124.71875 C331.65625,123.781245 331.187505,123.3125 330.25,123.3125 L285.25,123.3125 C284.749998,123.3125 284.328127,123.218751 283.984375,123.03125 C283.640623,122.843749 283.46875,122.406253 283.46875,121.71875 L283.46875,114.40625 C283.46875,113.531246 283.640623,113.015626 283.984375,112.859375 C284.328127,112.703124 284.749998,112.625 285.25,112.625 L338.03125,112.625 C339.406257,112.625 340.531246,112.734374 341.40625,112.953125 C342.281254,113.171876 342.953123,113.562497 343.421875,114.125 C343.890627,114.687503 344.218749,115.42187 344.40625,116.328125 C344.593751,117.23438 344.6875,118.343743 344.6875,119.65625 L344.6875,144.21875 C344.6875,145.468756 344.093756,146.09375 342.90625,146.09375 Z M286.9375,71.65625 C284.249987,71.65625 282.125008,72.7187394 280.5625,74.84375 C278.999992,76.9687606 278.21875,79.5624847 278.21875,82.625 C278.21875,84.1250075 278.421873,85.5624931 278.828125,86.9375 C279.234377,88.3125069 279.812496,89.5156198 280.5625,90.546875 C281.312504,91.5781302 282.23437,92.4062469 283.328125,93.03125 C284.42188,93.65625 285.624993,93.96875 286.9375,93.96875 C288.312507,93.96875 289.531245,93.671878 290.59375,93.078125 C291.656255,92.484372 292.562496,91.6718802 293.3125,90.640625 C294.062504,89.6093698 294.624998,88.4062569 295,87.03125 C295.375002,85.65625 295.5625,84.1875078 295.5625,82.625 C295.5625,79.5624847 294.796883,76.9687606 293.265625,74.84375 C291.734367,72.7187394 289.625013,71.65625 286.9375,71.65625 Z M391.375,74.5625 C390.812497,77.7500159 389.937506,81.0156083 388.75,84.359375 C387.562494,87.7031417 386.125008,91.0937328 384.4375,94.53125 C385.125003,96.0937578 385.999995,97.7031167 387.0625,99.359375 C388.125005,101.015633 389.281244,102.609367 390.53125,104.140625 C391.781256,105.671883 393.062493,107.109368 394.375,108.453125 C395.687507,109.796882 396.968744,110.968745 398.21875,111.96875 C398.781253,112.406252 399.078125,112.843748 399.109375,113.28125 C399.140625,113.718752 398.843753,114.312496 398.21875,115.0625 L393.71875,120.6875 C393.218748,121.312503 392.750002,121.640625 392.3125,121.671875 C391.874998,121.703125 391.312503,121.437503 390.625,120.875 C389.624995,120.062496 388.546881,119.062506 387.390625,117.875 C386.234369,116.687494 385.078131,115.421882 383.921875,114.078125 C382.765619,112.734368 381.64063,111.328132 380.546875,109.859375 C379.45312,108.390618 378.500004,106.968757 377.6875,105.59375 C375.187488,109.093768 372.45314,112.406234 369.484375,115.53125 C366.51561,118.656266 363.250018,121.499987 359.6875,124.0625 C358.874996,124.625003 358.296877,124.875 357.953125,124.8125 C357.609373,124.75 357.156253,124.375 356.59375,123.6875 L351.625,117.6875 C350.749996,116.687495 350.968743,115.656255 352.28125,114.59375 C355.718767,111.906237 358.828111,108.984391 361.609375,105.828125 C364.390639,102.671859 366.843739,99.4375166 368.96875,96.125 C371.093761,92.8124834 372.874993,89.5000166 374.3125,86.1875 C375.750007,82.8749834 376.874996,79.6562656 377.6875,76.53125 C377.812501,76.0312475 377.84375,75.5625022 377.78125,75.125 C377.71875,74.6874978 377.218755,74.46875 376.28125,74.46875 L358.46875,74.46875 C357.593746,74.46875 357.093751,74.2968767 356.96875,73.953125 C356.843749,73.6093733 356.78125,73.1250031 356.78125,72.5 L356.78125,65.84375 C356.78125,65.1562466 356.890624,64.6562516 357.109375,64.34375 C357.328126,64.0312484 357.812496,63.875 358.5625,63.875 L384.53125,63.875 C387.343764,63.875 389.281245,64.3593702 390.34375,65.328125 C391.406255,66.2968798 391.9375,67.8749891 391.9375,70.0625 C391.9375,70.6875031 391.875001,71.4218708 391.75,72.265625 C391.624999,73.1093792 391.500001,73.875 391.375,74.5625 Z M392.78125,98.375 C392.218747,98.375 391.781252,98.2500012 391.46875,98 C391.156248,97.7499988 391,97.2812534 391,96.59375 L391,89.65625 C391,88.7812456 391.171873,88.2500009 391.515625,88.0625 C391.859377,87.875 392.281248,87.78125 392.78125,87.78125 L402.4375,87.78125 L402.4375,59.75 C402.4375,58.4999937 403.093743,57.875 404.40625,57.875 L412.9375,57.875 C414.125006,57.875 414.71875,58.4999937 414.71875,59.75 L414.71875,141.5 C414.71875,142.250004 414.593751,142.734374 414.34375,142.953125 C414.093749,143.171876 413.625003,143.28125 412.9375,143.28125 L404.40625,143.28125 C403.718747,143.28125 403.218752,143.187501 402.90625,143 C402.593748,142.812499 402.4375,142.312504 402.4375,141.5 L402.4375,98.375 L392.78125,98.375 Z M431.78125,146.46875 L422.5,146.46875 C421.812497,146.46875 421.343751,146.343751 421.09375,146.09375 C420.843749,145.843749 420.71875,145.375 420.71875,144.6875 L420.71875,58.15625 C420.71875,57.4687466 420.859374,57.0000012 421.140625,56.75 C421.421876,56.4999988 421.906247,56.375 422.59375,56.375 L431.78125,56.375 C432.468753,56.375 432.937499,56.4999988 433.1875,56.75 C433.437501,57.0000012 433.5625,57.4687466 433.5625,58.15625 L433.5625,144.6875 C433.5625,145.375 433.437501,145.843749 433.1875,146.09375 C432.937499,146.343751 432.468753,146.46875 431.78125,146.46875 Z" id="path-1"></path>
    </defs>
    <g id="subscription-banner-ko" stroke="none" stroke-width="1" fill="none" fill-rule="evenodd">
        <g id="Group" transform="translate(25.000000, 11.000000)">
            <g id="icons-mt" transform="translate(178.409091, 156.500000)">
                <path d="M25.9547288,4.93805931 L20.7024425,9.09069302 L20.7024425,17.7365204 L25.9547288,21.8836612 C26.970682,22.6856248 28.3700138,21.8671275 28.3700138,20.4664376 L28.3700138,6.35522796 C28.3700138,4.95997599 26.9754742,4.13604073 25.9547288,4.93805931 M16.1114842,3.09491059 L2.29068692,3.09491059 C1.02553766,3.09491059 0,4.24470211 0,5.66325653 L0,21.1593019 C0,22.5777489 1.02553766,23.7276479 2.29068692,23.7276479 L16.1114842,23.7276479 C17.3766334,23.7276479 18.4021711,22.5777489 18.4021711,21.1593019 L18.4021711,5.66325653 C18.4021711,4.24470211 17.3766334,3.09491059 16.1114842,3.09491059" id="Fill-1" fill="#FFFFFF"></path>
                <path d="M94.4044446,0.0790569096 L79.3973521,5.10819726 C78.7407918,5.32822215 78.2915664,5.97258076 78.2915664,6.70599706 L78.2915664,20.5676175 C77.5955137,20.284676 76.7859206,20.117038 75.9220254,20.117038 C73.3056573,20.117038 71.1829436,21.6205414 71.1829436,23.4697982 C71.1829436,25.319055 73.3056573,26.8225585 75.9220254,26.8225585 C78.5383935,26.8225585 80.6611073,25.319055 80.6611073,23.4697982 L80.6611073,11.5517833 L94.0885058,7.05180284 L94.0885058,17.2148573 C93.3924532,16.9319158 92.5828601,16.7642778 91.7189649,16.7642778 C89.1025968,16.7642778 86.9798831,18.2677812 86.9798831,20.117038 C86.9798831,21.9662948 89.1025968,23.4697982 91.7189649,23.4697982 C94.335333,23.4697982 96.4580468,21.9662948 96.4580468,20.117038 L96.4580468,1.67685671 C96.4580468,0.540061442 95.4164361,-0.261457802 94.4044446,0.0790569096" id="Fill-3" fill="#FFFFFF"></path>
                <path d="M144.944979,14.5575424 L146.340303,9.34421603 C146.635964,8.08838529 146.930824,6.61262019 147.199311,5.38743696 L147.252575,5.38743696 C147.521487,6.61262019 147.815923,8.05746219 148.165272,9.34421603 L149.587345,14.5575424 L144.944979,14.5575424 Z M149.480209,3.09491059 L144.965461,3.09491059 L138.755158,23.7276479 L142.406787,23.7276479 L144.074331,17.8802549 L150.198483,17.8802549 L151.953136,23.7276479 L155.777166,23.7276479 L149.480209,3.09491059 Z M166.609354,23.7276479 L156.550894,23.7276479 L156.550894,6.15161241 L166.072297,6.15161241 L166.072297,9.69397754 L160.20214,9.69397754 L160.20214,13.5537442 L165.497028,13.5537442 L165.497028,16.9676591 L160.20214,16.9676591 L160.20214,20.422268 L166.609354,20.422268 L166.609354,23.7276479 Z" id="Fill-6" fill="#FFFFFF"></path>
                <path d="M231.500478,14.8180568 C231.326416,15.2893902 231.132574,15.724484 230.918998,16.1232835 C230.705375,16.5221378 230.472019,16.91185 230.218834,17.2925298 C229.965696,17.6732095 229.700662,18.0358242 229.423778,18.3802643 C229.146894,18.7247045 228.858114,19.0690899 228.557483,19.4135301 L228.557483,19.3999539 C228.557483,19.4089864 228.557483,19.4089864 228.557483,19.3999539 C228.557483,19.3908667 228.561449,19.3908667 228.569333,19.3999539 C228.577264,19.4089864 228.58123,19.4044428 228.58123,19.386323 C228.61286,19.3682032 228.644538,19.3365073 228.676168,19.2911805 C228.707798,19.2458536 228.739429,19.2096141 228.771107,19.1824617 C228.802785,19.1552547 228.834367,19.1234493 228.866045,19.0872097 C228.897675,19.0509701 228.929305,19.0238178 228.960983,19.005698 C229.214121,18.7155625 229.455408,18.434569 229.684847,18.1626627 C229.914285,17.8907564 230.139758,17.6007304 230.361265,17.2925298 C230.582772,16.9843292 230.79243,16.6761833 230.99019,16.3679827 C231.187951,16.0598369 231.373909,15.724484 231.547923,15.3619241 C231.579601,15.325575 231.599334,15.2802482 231.607266,15.2259436 C231.615197,15.1715295 231.619115,15.130801 231.619115,15.1035392 C231.619115,15.0763869 231.607266,15.0355489 231.583519,14.9811348 C231.559821,14.9268302 231.532156,14.8815034 231.500478,14.8452638 L231.500478,14.8180568 Z M232.05287,13.9893769 C232.120927,13.7921405 232.176194,13.5859168 232.218671,13.3708138 C232.261251,13.1556568 232.299517,12.9450476 232.333519,12.7388238 C232.367522,12.5326 232.384523,12.3219367 232.384523,12.1068337 C232.384523,11.8916767 232.376048,11.6854529 232.358996,11.4882707 C232.341994,11.3806922 232.329256,11.2865948 232.320781,11.2058703 C232.312255,11.1251999 232.295254,11.0400358 232.269778,10.9504322 C232.244199,10.8607202 232.218671,10.7755561 232.193195,10.6948858 C232.167667,10.6142154 232.137928,10.5291055 232.103925,10.4393935 C232.018868,10.2601321 231.916757,10.0853102 231.797748,9.91503616 C231.678688,9.74465385 231.546838,9.59224642 231.402251,9.45775971 C231.257663,9.32332715 231.108863,9.18889459 230.9558,9.05435375 C230.802738,8.91997533 230.632622,8.80784893 230.445506,8.71824527 C230.27539,8.61066674 230.105326,8.52106308 229.935211,8.44927187 C229.765147,8.37758894 229.586505,8.31034559 229.39944,8.24759595 C229.212323,8.18484632 229.025258,8.13557784 228.838141,8.09968224 C228.651024,8.06378663 228.463908,8.01895773 228.276842,7.96519554 C228.242789,7.98311627 228.204574,7.98311627 228.161994,7.96519554 C228.119465,7.9472748 228.076988,7.94278108 228.034459,7.95176852 C227.99193,7.96075596 227.949401,7.9562081 227.906872,7.93828737 C227.864395,7.92036663 227.826078,7.92036663 227.792075,7.93828737 C227.843079,7.93828737 227.889871,7.95176852 227.9324,7.97862255 C227.974929,8.00553072 228.021721,8.01895773 228.072725,8.01895773 C228.123728,8.01895773 228.17052,8.02794517 228.213049,8.0458659 C228.255578,8.06378663 228.302319,8.07277407 228.353374,8.07277407 C228.693553,8.19827334 229.008257,8.33276004 229.297381,8.47623418 C229.586505,8.61960003 229.854416,8.80784893 230.101063,9.04092673 C230.34771,9.27405867 230.568829,9.52500306 230.764421,9.79392233 C230.960064,10.0628957 231.125864,10.3856313 231.261926,10.7621291 C231.346984,10.9414447 231.419252,11.1386269 231.478782,11.353784 C231.538312,11.5689952 231.585104,11.7796044 231.619158,11.9858282 C231.653161,12.1919437 231.674425,12.4071007 231.6829,12.6312994 C231.691426,12.8553356 231.687163,13.0660531 231.670162,13.2632353 L231.670162,13.2901435 C231.670162,13.3260391 231.674425,13.3439598 231.6829,13.3439598 C231.691426,13.3439598 231.695689,13.3618805 231.695689,13.397722 C231.729692,13.4335635 231.759483,13.4828861 231.784959,13.5456357 C231.810486,13.6083853 231.836014,13.6621475 231.86149,13.7069764 C231.887018,13.7518053 231.912545,13.8100613 231.938073,13.8817983 C231.963549,13.9535354 231.99334,14.0073517 232.027343,14.0431932 C232.027343,14.0611139 232.035817,14.0521446 232.05287,14.0162309 C232.05287,13.9983643 232.05287,13.9983643 232.05287,14.0162309 L232.05287,13.9893769 Z M231.549231,20.149741 C231.564792,19.99674 231.580306,19.8268016 231.59582,19.6398744 C231.611335,19.4528446 231.619115,19.2744375 231.619115,19.1043964 C231.619115,18.934458 231.611335,18.7559995 231.59582,18.5690211 C231.580306,18.3820939 231.557011,18.2121042 231.525983,18.0591545 C231.510422,17.9571709 231.494907,17.876436 231.479393,17.8168985 C231.463879,17.7574637 231.448364,17.6851975 231.43285,17.600254 C231.417336,17.5153104 231.401775,17.4387329 231.38626,17.3707781 C231.370746,17.3027719 231.355232,17.2178283 231.339718,17.1157934 C230.951673,17.7787124 230.540334,18.3863026 230.105747,18.938718 C229.67116,19.4911334 229.209387,20.0222487 228.720477,20.5321667 C228.231519,21.0420333 227.719314,21.5137138 227.183814,21.9471056 C226.648313,22.3805486 226.085722,22.8097317 225.495851,23.2346035 C225.511366,23.2176147 225.523036,23.2133547 225.53077,23.2218748 C225.538551,23.2303434 225.546331,23.2303434 225.554065,23.2218748 C225.561846,23.2133547 225.565689,23.2133547 225.565689,23.2218748 C225.565689,23.2303434 225.57347,23.2260834 225.588984,23.2090947 C225.837353,23.2430912 226.085722,23.2515922 226.333997,23.2346035 C226.582366,23.2176147 226.830688,23.200626 227.079057,23.183586 C227.327426,23.1666486 227.571905,23.1241512 227.812447,23.0561963 C228.053035,22.9881388 228.297514,22.9201327 228.545836,22.8522292 C228.794205,22.7502456 229.038637,22.6482106 229.279225,22.5462784 C229.519814,22.4442435 229.748731,22.3125425 229.966072,22.1511241 C230.183365,21.989603 230.389035,21.8196646 230.583034,21.6411548 C230.777032,21.4627477 230.959454,21.2460005 231.130205,20.9910671 C231.176747,20.9400497 231.2194,20.8805635 231.258256,20.81266 C231.297018,20.7446025 231.335827,20.6809077 231.374637,20.6213702 C231.413446,20.5618841 231.448364,20.4897205 231.479393,20.4046743 C231.510422,20.3196795 231.533716,20.2432046 231.549231,20.1751984 L231.549231,20.149741 Z M219.968884,6.17236872 C219.617037,6.0858125 219.26099,5.99925627 218.900795,5.91275231 C218.540548,5.82619608 218.176103,5.76561717 217.807508,5.73096332 C217.438914,5.696414 217.066069,5.66604615 216.689076,5.64006882 C216.312133,5.61414377 215.930889,5.62711017 215.545547,5.67906094 C215.763365,6.04253438 215.985382,6.41902262 216.211598,6.80847338 C216.437764,7.19792414 216.65978,7.57869837 216.877598,7.95084834 C217.095415,8.32299831 217.317432,8.70382481 217.543598,9.09327557 C217.769814,9.48267406 217.99178,9.8591623 218.209598,10.2225835 C218.66203,9.98032011 219.122761,9.73795222 219.59189,9.49568886 C220.06107,9.25332096 220.534399,9.03698266 221.011928,8.84656941 C221.489456,8.65620843 221.975333,8.47008118 222.469609,8.28834446 C222.963885,8.10666 223.46236,7.96381087 223.965035,7.85995385 C223.646683,7.6522398 223.324131,7.47484135 222.99743,7.32770621 C222.670679,7.18062335 222.339779,7.03354048 222.004629,6.88635308 C221.669579,6.73927021 221.33448,6.6093836 220.99938,6.49690231 C220.66428,6.38436876 220.320782,6.27622575 219.968884,6.17236872 L219.968884,6.17236872 Z M226.640813,11.6794859 C226.933798,12.1732961 227.059918,12.7465142 227.019221,13.3990872 C226.978574,14.0516068 226.79544,14.7174411 226.469917,15.3964301 C226.144394,16.0754191 225.688672,16.7544613 225.102702,17.4335036 C224.516781,18.1124926 223.82499,18.716494 223.027476,19.2456144 C222.229914,19.7924165 221.42837,20.2024515 220.622649,20.4757727 C219.816976,20.7491471 219.05608,20.9034894 218.33991,20.9387463 C217.623741,20.9740033 216.988964,20.8681792 216.43558,20.6212741 C215.882148,20.3744223 215.459012,20.0040114 215.166027,19.5101479 C214.873042,18.9810276 214.746922,18.399075 214.78757,17.7641306 C214.828266,17.1292394 215.0114,16.4634584 215.336923,15.7667877 C215.662446,15.070117 216.118168,14.3911812 216.704138,13.7297674 C217.290059,13.0684069 217.98185,12.4555114 218.779363,11.8910808 C219.576877,11.3796954 220.378519,10.978448 221.184191,10.6874451 C221.989864,10.3964422 222.74673,10.2421531 223.45474,10.2244714 C224.162751,10.2068429 224.797528,10.312667 225.35907,10.5419436 C225.920613,10.7712203 226.347877,11.1504188 226.640813,11.6794859 L226.640813,11.6794859 Z M223.81956,20.498801 C224.752524,19.9009569 225.566768,19.2176917 226.262439,18.4490055 C226.95801,17.6803709 227.498187,16.9074033 227.88277,16.130206 C228.267453,15.3529055 228.488387,14.5928336 228.545672,13.8497325 C228.603006,13.1066829 228.451614,12.4532842 228.091496,11.8895878 C227.747739,11.2917437 227.244483,10.8604087 226.581582,10.5956345 C225.918681,10.3308602 225.165775,10.2070616 224.322864,10.2241355 C223.479954,10.2412094 222.579709,10.4162812 221.62218,10.7494027 C220.6647,11.0824725 219.711322,11.5480068 218.761948,12.1457994 C217.829032,12.7778428 217.014731,13.4696707 216.319069,14.221283 C215.623497,14.9728438 215.079268,15.7458629 214.686479,16.5401341 C214.293592,17.3344054 214.072658,18.0988618 214.023578,18.8333486 C213.974449,19.5678354 214.129943,20.2340267 214.490011,20.8319224 C214.833769,21.3785448 215.337074,21.7970357 215.999925,22.0874466 C216.662827,22.3778059 217.415732,22.5059375 218.258693,22.4717897 C219.101603,22.4376419 220.001798,22.26257 220.959328,21.9465741 C221.916808,21.6305266 222.870235,21.1479183 223.81956,20.498801 L223.81956,20.498801 Z M211.062302,11.0498421 C211.093489,11.2923856 211.144179,11.5479562 211.21442,11.8165016 C211.284614,12.0849946 211.362628,12.3362229 211.448416,12.5701341 C211.534203,12.8040453 211.62781,13.0465365 211.729238,13.2977648 C211.830619,13.548993 211.935957,13.7872466 212.045111,14.0124208 C212.076345,14.0817937 212.111442,14.1467196 212.150449,14.2073555 C212.189456,14.2679914 212.224553,14.3372597 212.255787,14.4152649 C212.286926,14.4932179 212.322023,14.5581961 212.361077,14.6101473 C212.400037,14.6621509 212.435134,14.7314191 212.466368,14.8180568 C212.809564,14.3849208 213.160581,13.9777866 213.519371,13.5966019 C213.878255,13.2155218 214.252638,12.8473118 214.642661,12.4921811 C215.032638,12.1370504 215.430482,11.7991845 215.836099,11.478688 C216.241716,11.1581391 216.655106,10.8419849 217.076363,10.5301208 C217.076363,10.5474379 217.076363,10.5474379 217.076363,10.5301208 L217.076363,10.5170937 C217.076363,10.5257784 217.076363,10.5257784 217.076363,10.5170937 L217.076363,10.5301208 C216.842321,10.1143019 216.616146,9.7071154 216.397744,9.30866591 C216.179295,8.91021642 215.95703,8.50742458 215.730808,8.10023807 C215.504586,7.69310389 215.278363,7.29025973 215.052188,6.89186255 C214.825966,6.49336074 214.603654,6.08617424 214.385252,5.67040768 C214.354018,5.63577355 214.334515,5.62279883 214.326742,5.6314312 C214.318921,5.64006357 214.307238,5.64006357 214.291598,5.6314312 C214.276051,5.62279883 214.260411,5.62711017 214.244817,5.64440592 C214.057602,5.66172299 213.874344,5.70504181 213.694902,5.7743624 C213.515508,5.84368298 213.336113,5.91295125 213.156671,5.98227184 C212.977276,6.05154011 212.801744,6.13817776 212.63017,6.24213248 C212.458548,6.3460872 212.294746,6.4499896 212.138718,6.55399664 C212.091938,6.60594784 212.041248,6.64492432 211.986647,6.67092608 C211.932047,6.69692784 211.881309,6.735852 211.834529,6.78790783 C211.787749,6.83985904 211.744832,6.89186255 211.705825,6.94381376 C211.666817,6.99576496 211.63172,7.05640085 211.600487,7.12572144 C211.5693,7.19504202 211.534203,7.26865263 211.495196,7.34660559 C211.456236,7.42450624 211.421092,7.49816917 211.389905,7.56754207 C211.358718,7.63681034 211.331394,7.71042095 211.307981,7.78842623 C211.284614,7.86637919 211.25729,7.93998981 211.226103,8.00925807 C211.148089,8.26917103 211.085716,8.5203993 211.038935,8.76294287 C210.992108,9.00548644 210.964784,9.25671471 210.957011,9.51657535 C210.949191,9.77648831 210.953099,10.0276643 210.968695,10.2702078 C210.984288,10.5128037 211.015522,10.7726644 211.062302,11.0498421 L211.062302,11.0498421 Z M220.650451,24.5684607 C220.667308,24.5507151 220.688391,24.5418423 220.713702,24.5418423 C220.738961,24.5418423 220.764272,24.5330229 220.789531,24.5153307 C220.814893,24.4975851 220.835976,24.4887657 220.852833,24.4887657 C220.869639,24.4887657 220.886547,24.4710735 220.903403,24.4356357 C220.903403,24.4533813 220.899176,24.4577643 220.890773,24.4488915 C220.88232,24.4400721 220.873917,24.4400721 220.865463,24.4488915 C220.857009,24.4577643 220.848606,24.4577643 220.840152,24.4488915 C220.83175,24.4400721 220.827523,24.4445085 220.827523,24.4622007 C220.507092,24.5507151 220.195065,24.6436124 219.891543,24.7409996 C219.587969,24.8383334 219.280169,24.9180284 218.968192,24.9799778 C218.656216,25.0418737 218.339962,25.1038231 218.019532,25.1657725 C217.699101,25.2277219 217.378671,25.2587233 217.058292,25.2587233 C216.805339,25.2941611 216.548109,25.3074169 216.286703,25.2985441 C216.025348,25.2897247 215.768168,25.2764689 215.515165,25.2587233 C215.262212,25.2410311 215.00926,25.2055933 214.756257,25.1525167 C214.503304,25.0994401 214.258755,25.0374908 214.022659,24.9666686 C213.820277,24.8958998 213.626348,24.8206412 213.440873,24.7409996 C213.255348,24.6613581 213.078276,24.5640243 212.909607,24.4488915 C212.740938,24.333919 212.576496,24.2188396 212.416332,24.1038136 C212.256117,23.9887342 212.108583,23.8427069 211.973627,23.6656781 C211.906149,23.6126015 211.842949,23.5462157 211.783925,23.4665742 C211.724851,23.3869326 211.665878,23.3161104 211.606803,23.254161 C211.54783,23.1922116 211.493033,23.1213894 211.442361,23.0417479 C211.391791,22.9621063 211.34122,22.895774 211.290599,22.8425905 C211.138838,22.6125386 211.012336,22.3912526 210.911145,22.1788395 C210.810005,21.9664263 210.729847,21.736321 210.670874,21.4885235 C210.611799,21.240726 210.573858,20.9973648 210.557053,20.7583867 C210.540145,20.519462 210.540145,20.267228 210.557053,20.0016849 C210.573858,19.8954783 210.590715,19.7848888 210.607572,19.6698094 C210.624479,19.5547834 210.641336,19.4485769 210.658193,19.3511896 C210.675101,19.2538559 210.696184,19.1432129 210.721444,19.0193676 C210.746754,18.8954688 210.767787,18.7892088 210.784695,18.7007479 L210.784695,18.6874386 C210.784695,18.6963115 210.784695,18.6963115 210.784695,18.6874386 C210.784695,18.6785658 210.784695,18.6785658 210.784695,18.6874386 C210.784695,18.6963115 210.776241,18.6830022 210.759384,18.6476179 C210.742527,18.7715166 210.717217,18.8777232 210.683503,18.9662376 C210.64979,19.0546985 210.616026,19.1520857 210.582312,19.2582923 C210.548599,19.3644454 210.519061,19.4618326 210.493802,19.550347 C210.46844,19.6388614 210.438954,19.7361952 210.40524,19.8424552 C210.337814,20.0725071 210.287142,20.3159216 210.253479,20.5725385 C210.219715,20.8292089 210.198682,21.0770064 210.190228,21.3159846 C210.181774,21.5549627 210.194455,21.8027068 210.228169,22.0593771 C210.261882,22.3160475 210.320906,22.5594621 210.40524,22.7895139 C210.455811,22.9665427 210.514885,23.1258259 210.582312,23.2674703 C210.64979,23.4090078 210.725671,23.5506522 210.810005,23.6922431 C210.894289,23.8338341 210.995531,23.9621692 211.113528,24.0771952 C211.231576,24.1922746 211.358077,24.3029175 211.493033,24.4091241 C211.661651,24.5330229 211.838722,24.6480488 212.024197,24.7542554 C212.209723,24.860462 212.399475,24.9489764 212.593404,25.0197451 C212.787383,25.0905673 212.981312,25.1613361 213.175189,25.2322117 C213.369169,25.3029805 213.575778,25.3472377 213.795017,25.3649298 C214.064826,25.4357521 214.343089,25.4799558 214.629806,25.497648 C214.916523,25.5153402 215.199013,25.5286494 215.477225,25.5375222 C215.755488,25.5463416 216.037977,25.5375222 216.324694,25.5109572 C216.61136,25.4843922 216.898077,25.4623171 217.184794,25.4445714 C217.47151,25.3738027 217.762403,25.3162362 218.057523,25.2720325 C218.352642,25.2277219 218.643535,25.1657725 218.930252,25.0861309 C219.216969,25.0064893 219.503635,24.9269012 219.790351,24.8471528 C220.077017,24.7675112 220.363734,24.6657945 220.650451,24.5418423 L220.650451,24.5684607 Z M233.058687,13.4775638 C233.025466,13.5986649 232.992296,13.7326646 232.959126,13.8796674 C232.925906,14.0266703 232.892736,14.1607222 232.859566,14.2817189 C232.826396,14.4027677 232.784908,14.5368197 232.735103,14.6838225 C232.685348,14.8308254 232.635592,14.9561564 232.585787,15.05992 C232.585787,15.0945427 232.581628,15.1161101 232.573311,15.1247788 C232.565043,15.1333953 232.560885,15.1507328 232.560885,15.1766867 C232.560885,15.2026407 232.565043,15.2242081 232.573311,15.2414933 C232.581628,15.2588308 232.585787,15.2847847 232.585787,15.3193552 C232.652177,15.4922598 232.706091,15.6911183 232.747529,15.9159308 C232.789067,16.1407433 232.826396,16.3526049 232.859566,16.5514635 C232.892736,16.7503742 232.91348,16.9622358 232.921797,17.1870483 C232.930065,17.4118086 232.925906,17.6193359 232.909321,17.8096301 C232.909321,18.0516756 232.892736,18.2764881 232.859566,18.4840154 C232.826396,18.6915427 232.784908,18.9076864 232.735103,19.1324989 C232.685348,19.3573114 232.627275,19.569173 232.560885,19.7680316 C232.494544,19.9668901 232.419836,20.178804 232.336911,20.4035642 C232.287106,20.5246653 232.233192,20.6542785 232.175119,20.792717 C232.117047,20.9309989 232.058974,21.0607165 232.000901,21.1817654 C231.942778,21.3028142 231.876438,21.4281452 231.80178,21.5578628 C231.727123,21.6875804 231.648306,21.8043471 231.565331,21.9080586 C231.4326,22.1155858 231.291552,22.2971591 231.142186,22.4528307 C230.992871,22.60845 230.831079,22.7641216 230.656861,22.9196887 C230.482643,23.0753602 230.300107,23.2050778 230.109354,23.3087892 C229.9185,23.4125529 229.723538,23.5249852 229.524417,23.6460341 C229.308712,23.7325125 229.093006,23.8189909 228.8773,23.9054171 C228.661594,23.9918955 228.445888,24.0567543 228.230182,24.0999935 C228.014477,24.1432327 227.794612,24.1864719 227.570639,24.2297111 C227.346615,24.272898 227.118483,24.2945176 226.886142,24.2945176 C226.886142,24.3291403 226.882033,24.3420912 226.873716,24.3334225 C226.865398,24.324806 226.852972,24.324806 226.836387,24.3334225 C226.819802,24.3420912 226.803217,24.3420912 226.786632,24.3334225 C226.770047,24.324806 226.753462,24.3291403 226.736826,24.3464256 C226.803217,24.380996 226.857131,24.4242874 226.898618,24.4760909 C226.940106,24.5279989 226.981594,24.5755724 227.023031,24.6187594 C227.064519,24.6619986 227.097739,24.7181887 227.122592,24.787434 C227.147494,24.856575 227.168238,24.9084829 227.184823,24.9430534 C227.201408,25.06405 227.209726,25.1678659 227.209726,25.2543443 C227.209726,25.3407705 227.1973,25.4316354 227.172397,25.5266781 C227.147494,25.621773 227.110165,25.7039171 227.06041,25.7731624 C227.010605,25.8423034 226.952582,25.9114443 226.886142,25.9806375 C226.819802,26.0324932 226.745144,26.0800667 226.662169,26.1233059 C226.579193,26.1665451 226.492109,26.1838304 226.400816,26.1751616 C226.309573,26.1665451 226.218281,26.1578764 226.127038,26.1492599 C226.035795,26.1405912 225.948661,26.1103028 225.865736,26.0584471 C225.74954,26.0065392 225.65003,25.9244474 225.567054,25.812015 C225.484079,25.6996349 225.421847,25.5915369 225.38036,25.4877733 C225.338922,25.3840097 225.322287,25.2586264 225.330605,25.1116758 C225.338922,24.9646208 225.367934,24.8392898 225.417689,24.7354739 C225.434274,24.6836182 225.438432,24.640379 225.430165,24.6058085 C225.421847,24.5712381 225.405262,24.5323332 225.38036,24.489094 C225.355457,24.445907 225.326446,24.4155665 225.293276,24.3982813 C225.260056,24.380996 225.226936,24.3550421 225.193715,24.3204716 C225.060985,24.3377568 224.936522,24.3334225 224.820376,24.3074685 C224.704231,24.2815668 224.583927,24.2642815 224.459464,24.255665 C224.335051,24.2469441 224.210588,24.2297111 224.086175,24.2037571 C223.961712,24.1778554 223.83309,24.1648523 223.700359,24.1648523 C223.667189,24.147567 223.638178,24.1432327 223.613275,24.1519014 C223.588373,24.1605179 223.559311,24.1605179 223.526141,24.1519014 C223.492921,24.1432327 223.46391,24.147567 223.439057,24.1648523 C223.414104,24.1821375 223.385093,24.190754 223.351923,24.190754 C223.053242,24.3637108 222.746293,24.5193824 222.431027,24.6577165 C222.115761,24.7960506 221.796336,24.9343847 221.472802,25.072771 C221.149218,25.2111051 220.821525,25.3321017 220.489674,25.4358654 C220.157823,25.539629 219.825972,25.6433926 219.49407,25.7472085 C219.261779,25.7990642 219.029488,25.8552542 218.797197,25.9157787 C218.564907,25.9763031 218.328457,26.028211 218.087848,26.0714502 C217.84724,26.1146372 217.606681,26.1578764 217.366073,26.2011156 C217.125465,26.2443548 216.889015,26.2573057 216.656724,26.2400204 C216.324873,26.2919284 216.001339,26.313548 215.686073,26.3048792 C215.370806,26.2962627 215.05554,26.2832596 214.740274,26.2659744 C214.425058,26.2486892 214.109791,26.20545 213.794475,26.136309 C213.479209,26.0671159 213.17226,25.9806375 212.873579,25.8768738 C212.641288,25.7904477 212.413156,25.6952483 212.189183,25.5915369 C211.965109,25.4877733 211.753562,25.3623901 211.554491,25.2153872 C211.35532,25.0683844 211.168676,24.9127651 210.994458,24.7485292 C210.82024,24.5841889 210.65018,24.3896648 210.48428,24.1648523 C210.401254,24.0783739 210.322488,23.9788924 210.24778,23.8665645 C210.173122,23.7541321 210.102623,23.6460341 210.036233,23.5422705 C209.969892,23.4385591 209.907611,23.3217923 209.849588,23.192127 C209.791516,23.0624094 209.737551,22.9456426 209.687796,22.841879 C209.621406,22.6343518 209.567492,22.4441619 209.526004,22.2712574 C209.484567,22.0983006 209.455455,21.9123929 209.43887,21.7134822 C209.422283,21.5146236 209.418126,21.3243816 209.426444,21.1428605 C209.434762,20.961235 209.447188,20.7667108 209.463773,20.5591836 C209.513578,20.2651779 209.57576,19.9625557 209.650467,19.6512649 C209.725125,19.339974 209.816368,19.0460727 209.924196,18.7693001 C210.032074,18.4926841 210.152378,18.2159637 210.285159,17.9392433 C210.417889,17.6625751 210.558887,17.3945234 210.708253,17.1351404 C210.758058,17.0313768 210.807813,16.940564 210.857568,16.8627543 C210.907374,16.7848925 210.961288,16.7028006 211.01936,16.6163745 C211.077433,16.5298961 211.131347,16.4476998 211.181102,16.3698902 C211.230907,16.2920805 211.28898,16.2012677 211.35532,16.0975041 C211.371955,16.0629336 211.380273,16.041314 211.380273,16.0326975 L211.380273,15.9807896 C211.380273,15.9548356 211.371955,15.941937 211.35532,15.941937 C211.206005,15.7170723 211.069115,15.5009285 210.944703,15.2934012 C210.82024,15.085874 210.699935,14.8653958 210.58379,14.6319668 C210.467644,14.3984334 210.363925,14.169391 210.272682,13.9445262 C210.181389,13.7197137 210.094305,13.4775638 210.01133,13.2181808 C209.91177,12.9588501 209.828844,12.6907984 209.762454,12.414078 C209.696064,12.1373575 209.64215,11.8650237 209.600662,11.596972 C209.559175,11.3289203 209.538431,11.0479177 209.538431,10.7539121 C209.538431,10.4599064 209.555066,10.1832382 209.588236,9.92385525 C209.604821,9.68175752 209.637991,9.45694502 209.687796,9.24941776 C209.737551,9.0418905 209.803942,8.83436323 209.886917,8.62683597 C209.969892,8.41930871 210.061085,8.22050239 210.160696,8.03020815 C210.260256,7.83996612 210.376351,7.64982853 210.509132,7.45953428 C210.641863,7.26934448 210.782911,7.07476809 210.932226,6.87590955 C211.081592,6.67705102 211.239225,6.4954255 211.405176,6.33113743 C211.571076,6.16684937 211.745294,6.00261353 211.92778,5.83827324 C212.110316,5.6740374 212.292852,5.53136893 212.475387,5.41032007 C212.558313,5.32384167 212.645447,5.25898287 212.73669,5.21574367 C212.827983,5.17250448 212.919225,5.12064877 213.010468,5.06012434 C213.101711,4.9995999 213.193004,4.95207856 213.284297,4.91745587 C213.37549,4.88283318 213.470941,4.83097748 213.570502,4.76178432 C213.587087,4.74449908 213.599563,4.73583035 213.607831,4.73583035 C213.616098,4.73583035 213.636892,4.72721385 213.670062,4.70998083 C213.636892,4.62350244 213.595404,4.54564055 213.545599,4.47644738 C213.495794,4.40730644 213.450197,4.32944456 213.40871,4.24301838 C213.367222,4.15653998 213.321626,4.07873032 213.271821,4.00958938 C213.222015,3.94039621 213.17226,3.8538656 213.122505,3.75015419 C213.122505,3.76743942 213.118346,3.76743942 213.110029,3.75015419 C213.101711,3.73286895 213.089285,3.72853459 213.0727,3.73715109 C213.056115,3.74581982 213.043638,3.74581982 213.035371,3.73715109 C213.027103,3.72853459 213.014627,3.73286895 212.998042,3.75015419 C212.798921,3.7155315 212.616385,3.65934143 212.450485,3.58153176 C212.284534,3.50372209 212.139377,3.38700759 212.014914,3.23133603 C211.890451,3.07571669 211.799208,2.91142863 211.741136,2.73847184 C211.683063,2.56556727 211.662319,2.36670873 211.678904,2.14184401 C211.712124,1.95170643 211.782623,1.77008091 211.890451,1.59712412 C211.998329,1.42416732 212.126901,1.29455417 212.276267,1.20802355 C212.425582,1.12154516 212.595642,1.06535509 212.786445,1.03940112 C212.977298,1.01349938 213.17226,1.05240422 213.371381,1.15611563 C213.553867,1.22530879 213.7115,1.33779337 213.84428,1.49336048 C213.977011,1.64903204 214.076571,1.81326788 214.142962,1.9862769 C214.209302,2.15918147 214.234204,2.34508913 214.217569,2.54389545 C214.201034,2.74285842 214.151229,2.92876609 214.068254,3.10167066 C214.051669,3.11895589 214.043351,3.13190676 214.043351,3.14052327 L214.043351,3.17948033 C214.043351,3.19676556 214.04751,3.20971643 214.055827,3.21838516 C214.064145,3.22700167 214.068254,3.23995254 214.068254,3.25728999 C214.118059,3.32648316 214.167814,3.40857497 214.217569,3.50372209 C214.267425,3.59886921 214.31718,3.68529539 214.366935,3.76310506 C214.41674,3.84091473 214.466495,3.92744534 214.51625,4.02248803 C214.566056,4.11763515 214.615811,4.19972696 214.665616,4.26892012 C214.665616,4.30354281 214.669725,4.32082805 214.678042,4.32082805 C214.68636,4.32082805 214.698786,4.32944456 214.715421,4.34678201 C214.732006,4.36406725 214.744433,4.36406725 214.7527,4.34678201 C214.761018,4.32944456 214.773494,4.32944456 214.790029,4.34678201 C215.05554,4.26030362 215.329319,4.20411355 215.611415,4.17815958 C215.893461,4.15220562 216.171398,4.12625166 216.445177,4.10034991 C216.718955,4.07439595 216.992784,4.07011381 217.266563,4.08739904 C217.540291,4.10463206 217.818229,4.11330079 218.100325,4.11330079 C218.631247,4.18244173 219.15811,4.26463798 219.680765,4.35973288 C220.203419,4.45482779 220.717806,4.58887974 221.223926,4.76178432 C221.729995,4.93479333 222.227797,5.12064877 222.717232,5.31950731 C223.206716,5.51836584 223.692042,5.75618143 224.173259,6.03284963 C224.355744,6.10204279 224.530013,6.19280333 224.695913,6.30523569 C224.861864,6.41761583 225.027815,6.52137946 225.193715,6.61652659 C225.359666,6.71162149 225.525567,6.81538512 225.691467,6.92781748 C225.857418,7.04019762 226.023369,7.13095816 226.189269,7.20015132 C226.222439,7.23477401 226.247342,7.25200702 226.263927,7.25200702 C226.280562,7.25200702 226.297147,7.26072797 226.313732,7.27801321 C226.330317,7.29529844 226.351061,7.29958058 226.375964,7.29096408 C226.400816,7.28229535 226.42156,7.28662971 226.438195,7.30391495 C226.637266,7.26934448 226.840546,7.25634139 227.047934,7.26501011 C227.255372,7.27367884 227.458602,7.27801321 227.657723,7.27801321 C227.856843,7.27801321 228.055964,7.29529844 228.255085,7.32986891 C228.454156,7.36443938 228.653276,7.39034112 228.852397,7.40767858 C229.101323,7.47681952 229.341882,7.53734395 229.574173,7.5893041 C229.806464,7.64115981 230.034646,7.71891725 230.258669,7.82268088 C230.482643,7.92644451 230.698348,8.03887687 230.905787,8.15992574 C231.113175,8.28097461 231.316405,8.42797744 231.515525,8.60088201 C231.648306,8.70464564 231.776878,8.8256945 231.901341,8.96408083 C232.025754,9.10241493 232.13774,9.24074903 232.237351,9.37913535 C232.336911,9.51741723 232.428154,9.67308879 232.511129,9.84599336 C232.594055,10.0189502 232.660445,10.1832382 232.7102,10.3389098 C232.74342,10.4080507 232.768273,10.4685751 232.784908,10.5204309 C232.801493,10.572391 232.822237,10.6371976 232.847089,10.7150072 C232.871992,10.7928169 232.896895,10.8576757 232.921797,10.9095314 C232.9467,10.9614916 232.967394,11.0305803 232.983979,11.1170587 C233.033784,11.2900155 233.071113,11.4758709 233.096015,11.6747817 C233.120918,11.8736924 233.137503,12.0682166 233.145771,12.2584064 C233.154088,12.4485962 233.149931,12.6475592 233.133344,12.8550864 C233.116759,13.0625615 233.091857,13.2614722 233.058687,13.451662 L233.058687,13.4775638 Z" id="Fill-8" fill="#FFFFFF"></path>
                <path d="M302.198347,9.45667125 L289.248671,9.45667125 L289.248671,12.5203201 L302.198347,12.5203201 C303.09233,12.5203201 303.817056,11.8344936 303.817056,10.9884957 C303.817056,10.1424499 303.09233,9.45667125 302.198347,9.45667125 L302.198347,9.45667125 Z M300.654183,20.1794423 L289.248671,20.1794423 L289.248671,23.2430912 L300.654183,23.2430912 C301.554048,23.2430912 302.283542,22.5572646 302.283542,21.7112667 C302.283542,20.8652209 301.554048,20.1794423 300.654183,20.1794423 L300.654183,20.1794423 Z M283.114614,20.1794423 L278.514071,20.1794423 C277.66714,20.1794423 276.980557,20.8652209 276.980557,21.7112667 C276.980557,22.5572646 277.66714,23.2430912 278.514071,23.2430912 L283.114614,23.2430912 L283.114614,20.1794423 Z M283.114614,14.8180568 L276.980557,14.8180568 C276.133626,14.8180568 275.447043,15.5038354 275.447043,16.3498812 C275.447043,17.1958791 276.133626,17.8817056 276.980557,17.8817056 L283.114614,17.8817056 L283.114614,14.8180568 Z M296.916242,16.3498812 L296.916242,16.3498812 C296.916242,15.5038354 296.229659,14.8180568 295.382728,14.8180568 L289.248671,14.8180568 L289.248671,17.8817056 L295.382728,17.8817056 C296.229659,17.8817056 296.916242,17.1958791 296.916242,16.3498812 L296.916242,16.3498812 Z M280.047585,12.5203201 L283.114614,12.5203201 L283.114614,9.45667125 L280.047585,9.45667125 C279.200654,9.45667125 278.514071,10.1424499 278.514071,10.9884957 C278.514071,11.8344936 279.200654,12.5203201 280.047585,12.5203201 L280.047585,12.5203201 Z M290.015428,1.8741403 L290.015428,6.92916094 C290.015428,7.39448612 289.672113,7.77166437 289.248671,7.77166437 L288.481914,7.77166437 L288.481914,24.6217331 C288.481914,25.5523309 287.795331,26.30674 286.9484,26.30674 C286.101468,26.30674 285.414885,25.5523309 285.414885,24.6217331 L285.414885,7.77166437 L284.648128,7.77166437 C284.224687,7.77166437 283.881371,7.39448612 283.881371,6.92916094 L283.881371,1.8741403 C283.881371,1.40881512 284.224687,1.03163686 284.648128,1.03163686 L289.248671,1.03163686 C289.672113,1.03163686 290.015428,1.40881512 290.015428,1.8741403 L290.015428,1.8741403 Z" id="Fill-10" fill="#FFFFFF"></path>
                <path d="M362.243256,25.1595289 L351.390518,25.1595289 L349.743942,25.1595289 C348.648712,25.1595289 347.760744,24.2626882 347.760744,23.1565137 L347.760744,21.4934841 L347.760744,7.206241 L347.760744,6.89722932 C346.825952,7.05885501 346.114168,7.87893647 346.114168,8.86927059 L346.114168,24.8195433 C346.114168,25.9257698 347.002084,26.8225585 348.097366,26.8225585 L360.59668,26.8225585 C361.577216,26.8225585 362.389184,26.10361 362.54921,25.1595289 L362.243256,25.1595289 Z M365.37374,22.0940936 L354.521002,22.0940936 L352.874426,22.0940936 C351.779196,22.0940936 350.891228,21.1972529 350.891228,20.0910784 L350.891228,18.4280488 L350.891228,4.14080575 L350.891228,3.83179407 C349.956436,3.99341975 349.244652,4.81350122 349.244652,5.80383534 L349.244652,21.754108 C349.244652,22.8602825 350.13262,23.7571232 351.22785,23.7571232 L363.727164,23.7571232 C364.7077,23.7571232 365.519668,23.0381747 365.679695,22.0940936 L365.37374,22.0940936 Z M366.414057,15.6072462 L363.061496,10.1938072 C362.972036,10.0495642 362.814905,9.96266457 362.645623,9.96266457 C362.476291,9.96185099 362.318288,10.0495642 362.229648,10.1938072 L360.301573,13.295774 C360.226622,13.4157973 360.099276,13.4914775 359.958191,13.4994654 C359.816337,13.508375 359.68002,13.4479537 359.591381,13.3376081 L358.980389,12.5752247 C358.867603,12.4351293 358.69663,12.3530485 358.516121,12.3513588 C358.336279,12.3506419 358.164639,12.4302649 358.05011,12.5704115 L355.577945,15.572632 C355.499764,15.666797 355.483667,15.7996726 355.53601,15.9106839 C355.589224,16.0227193 355.701292,16.0935351 355.824588,16.0935351 L366.142345,16.0935351 C366.259284,16.0935351 366.365713,16.0307072 366.422055,15.9301416 C366.47855,15.8286544 366.47532,15.7046371 366.414057,15.6072462 L366.414057,15.6072462 Z M356.288242,9.19633015 C356.288242,10.0423998 356.989424,10.7290234 357.853484,10.7290234 C358.717593,10.7290234 359.418726,10.0423998 359.418726,9.19633015 C359.418726,8.34938224 358.717593,7.66358813 357.853484,7.66358813 C356.989424,7.66358813 356.288242,8.34938224 356.288242,9.19633015 L356.288242,9.19633015 Z M368.810179,7.47199843 L368.810179,17.925428 C368.810179,19.0299347 367.923919,19.9253291 366.830629,19.9253291 L354.354635,19.9253291 C353.261447,19.9253291 352.375136,19.0298828 352.375136,17.925428 L352.375136,1.99995302 C352.375136,0.895394478 353.261447,0 354.354635,0 L361.41441,0 C361.868274,0 362.236162,0.371680033 362.236162,0.830222048 L362.236162,5.31336922 C362.236162,6.04707795 362.824793,6.64177638 363.551017,6.64177638 L367.988427,6.64177638 C368.442291,6.64177638 368.810179,7.01345641 368.810179,7.47199843 L368.810179,7.47199843 Z M367.830242,4.23828085 C368.022618,4.42665966 368.08057,4.71092977 367.976398,4.95733265 C367.871628,5.20384191 367.626134,5.36451169 367.353809,5.36451169 L364.005474,5.36451169 C363.633431,5.36451169 363.331831,5.06917925 363.331831,4.70486676 L363.331831,1.42610754 C363.331831,1.15944143 363.495856,0.919048374 363.747651,0.81645585 C363.999282,0.714448353 364.289585,0.771196006 364.481961,0.959574815 L367.830242,4.23828085 Z" id="Fill-12" fill="#FFFFFF"></path>
                <path d="M56.7569396,13.7505778 C57.0317623,13.7505778 57.269586,13.8425363 57.470418,14.0264561 C57.6712499,14.2103759 57.7716644,14.4351634 57.7716644,14.7008253 C57.7716644,14.9664872 57.6765349,15.1963835 57.486273,15.3905211 C57.2960112,15.5846586 57.0529025,15.6817259 56.7569396,15.6817259 L51.0174025,15.6817259 L51.0174025,21.1992919 C51.0174025,21.4853894 50.922273,21.7203945 50.7320112,21.9043143 C50.5417493,22.0882341 50.3092106,22.1801926 50.0343879,22.1801926 C49.7595652,22.1801926 49.5270265,22.0831253 49.3367646,21.8889877 C49.1465028,21.6948501 49.0513733,21.4649539 49.0513733,21.1992919 L49.0513733,15.6817259 L43.3118362,15.6817259 C43.0370135,15.6817259 42.7991898,15.5846586 42.5983578,15.3905211 C42.3975259,15.1963835 42.2971114,14.9664872 42.2971114,14.7008253 C42.2971114,14.4351634 42.3975259,14.2103759 42.5983578,14.0264561 C42.7991898,13.8425363 43.0370135,13.7505778 43.3118362,13.7505778 L49.0513733,13.7505778 L49.0513733,8.23301182 C49.0513733,7.94691437 49.1465028,7.70680047 49.3367646,7.51266292 C49.5270265,7.31852537 49.7595652,7.22145805 50.0343879,7.22145805 C50.3092106,7.22145805 50.5417493,7.31852537 50.7320112,7.51266292 C50.922273,7.70680047 51.0174025,7.94691437 51.0174025,8.23301182 L51.0174025,13.7505778 L56.7569396,13.7505778 Z" id="+" fill="#4A74B8" fill-rule="nonzero"></path>
                <path d="M124.329154,13.7505778 C124.603977,13.7505778 124.841801,13.8425363 125.042633,14.0264561 C125.243464,14.2103759 125.343879,14.4351634 125.343879,14.7008253 C125.343879,14.9664872 125.248749,15.1963835 125.058488,15.3905211 C124.868226,15.5846586 124.625117,15.6817259 124.329154,15.6817259 L118.589617,15.6817259 L118.589617,21.1992919 C118.589617,21.4853894 118.494488,21.7203945 118.304226,21.9043143 C118.113964,22.0882341 117.881425,22.1801926 117.606602,22.1801926 C117.33178,22.1801926 117.099241,22.0831253 116.908979,21.8889877 C116.718717,21.6948501 116.623588,21.4649539 116.623588,21.1992919 L116.623588,15.6817259 L110.884051,15.6817259 C110.609228,15.6817259 110.371404,15.5846586 110.170572,15.3905211 C109.96974,15.1963835 109.869326,14.9664872 109.869326,14.7008253 C109.869326,14.4351634 109.96974,14.2103759 110.170572,14.0264561 C110.371404,13.8425363 110.609228,13.7505778 110.884051,13.7505778 L116.623588,13.7505778 L116.623588,8.23301182 C116.623588,7.94691437 116.718717,7.70680047 116.908979,7.51266292 C117.099241,7.31852537 117.33178,7.22145805 117.606602,7.22145805 C117.881425,7.22145805 118.113964,7.31852537 118.304226,7.51266292 C118.494488,7.70680047 118.589617,7.94691437 118.589617,8.23301182 L118.589617,13.7505778 L124.329154,13.7505778 Z" id="+" fill="#4A74B8" fill-rule="nonzero"></path>
                <path d="M194.996279,13.7505778 C195.271102,13.7505778 195.508926,13.8425363 195.709758,14.0264561 C195.91059,14.2103759 196.011004,14.4351634 196.011004,14.7008253 C196.011004,14.9664872 195.915875,15.1963835 195.725613,15.3905211 C195.535351,15.5846586 195.292242,15.6817259 194.996279,15.6817259 L189.256742,15.6817259 L189.256742,21.1992919 C189.256742,21.4853894 189.161613,21.7203945 188.971351,21.9043143 C188.781089,22.0882341 188.54855,22.1801926 188.273728,22.1801926 C187.998905,22.1801926 187.766366,22.0831253 187.576104,21.8889877 C187.385843,21.6948501 187.290713,21.4649539 187.290713,21.1992919 L187.290713,15.6817259 L181.551176,15.6817259 C181.276353,15.6817259 181.03853,15.5846586 180.837698,15.3905211 C180.636866,15.1963835 180.536451,14.9664872 180.536451,14.7008253 C180.536451,14.4351634 180.636866,14.2103759 180.837698,14.0264561 C181.03853,13.8425363 181.276353,13.7505778 181.551176,13.7505778 L187.290713,13.7505778 L187.290713,8.23301182 C187.290713,7.94691437 187.385843,7.70680047 187.576104,7.51266292 C187.766366,7.31852537 187.998905,7.22145805 188.273728,7.22145805 C188.54855,7.22145805 188.781089,7.31852537 188.971351,7.51266292 C189.161613,7.70680047 189.256742,7.94691437 189.256742,8.23301182 L189.256742,13.7505778 L194.996279,13.7505778 Z" id="+" fill="#4A74B8" fill-rule="nonzero"></path>
                <path d="M261.021039,13.7505778 C261.295861,13.7505778 261.533685,13.8425363 261.734517,14.0264561 C261.935349,14.2103759 262.035763,14.4351634 262.035763,14.7008253 C262.035763,14.9664872 261.940634,15.1963835 261.750372,15.3905211 C261.56011,15.5846586 261.317002,15.6817259 261.021039,15.6817259 L255.281502,15.6817259 L255.281502,21.1992919 C255.281502,21.4853894 255.186372,21.7203945 254.99611,21.9043143 C254.805848,22.0882341 254.57331,22.1801926 254.298487,22.1801926 C254.023664,22.1801926 253.791125,22.0831253 253.600864,21.8889877 C253.410602,21.6948501 253.315472,21.4649539 253.315472,21.1992919 L253.315472,15.6817259 L247.575935,15.6817259 C247.301113,15.6817259 247.063289,15.5846586 246.862457,15.3905211 C246.661625,15.1963835 246.56121,14.9664872 246.56121,14.7008253 C246.56121,14.4351634 246.661625,14.2103759 246.862457,14.0264561 C247.063289,13.8425363 247.301113,13.7505778 247.575935,13.7505778 L253.315472,13.7505778 L253.315472,8.23301182 C253.315472,7.94691437 253.410602,7.70680047 253.600864,7.51266292 C253.791125,7.31852537 254.023664,7.22145805 254.298487,7.22145805 C254.57331,7.22145805 254.805848,7.31852537 254.99611,7.51266292 C255.186372,7.70680047 255.281502,7.94691437 255.281502,8.23301182 L255.281502,13.7505778 L261.021039,13.7505778 Z" id="+" fill="#4A74B8" fill-rule="nonzero"></path>
                <path d="M332.203982,13.7505778 C332.478805,13.7505778 332.716629,13.8425363 332.917461,14.0264561 C333.118293,14.2103759 333.218707,14.4351634 333.218707,14.7008253 C333.218707,14.9664872 333.123578,15.1963835 332.933316,15.3905211 C332.743054,15.5846586 332.499945,15.6817259 332.203982,15.6817259 L326.464445,15.6817259 L326.464445,21.1992919 C326.464445,21.4853894 326.369316,21.7203945 326.179054,21.9043143 C325.988792,22.0882341 325.756253,22.1801926 325.481431,22.1801926 C325.206608,22.1801926 324.974069,22.0831253 324.783807,21.8889877 C324.593545,21.6948501 324.498416,21.4649539 324.498416,21.1992919 L324.498416,15.6817259 L318.758879,15.6817259 C318.484056,15.6817259 318.246232,15.5846586 318.0454,15.3905211 C317.844569,15.1963835 317.744154,14.9664872 317.744154,14.7008253 C317.744154,14.4351634 317.844569,14.2103759 318.0454,14.0264561 C318.246232,13.8425363 318.484056,13.7505778 318.758879,13.7505778 L324.498416,13.7505778 L324.498416,8.23301182 C324.498416,7.94691437 324.593545,7.70680047 324.783807,7.51266292 C324.974069,7.31852537 325.206608,7.22145805 325.481431,7.22145805 C325.756253,7.22145805 325.988792,7.31852537 326.179054,7.51266292 C326.369316,7.70680047 326.464445,7.94691437 326.464445,8.23301182 L326.464445,13.7505778 L332.203982,13.7505778 Z" id="+" fill="#4A74B8" fill-rule="nonzero"></path>
            </g>
            <g id="" fill-rule="nonzero" fill="#FFFFFF">
                <use xlink:href="#path-1"></use>
                <use xlink:href="#path-1"></use>
            </g>
            <g id="icon-lightning" fill="#FFFFFF">
                <path d="M139.012593,111.921604 C140.413638,109.267989 140.321167,107.850561 138.75142,105.281111 C137.187988,102.711661 134.360638,102.912051 131.327597,102.912051 L87.7765781,102.912051 L111.616441,11.7272918 C112.297116,9.16897431 111.74184,5.92977474 110.089546,3.83012861 C108.461609,1.73003716 105.916183,0 103.232726,0 L43.1258337,0 C39.1901882,0 35.737646,2.23457567 34.7434726,5.99167311 L0.288418292,135.057789 C-0.401729292,137.622786 0.163470004,142.449969 1.80403652,144.538482 C3.44370087,146.639909 5.97875278,149.957484 8.67123051,149.957484 L71.3046047,149.957484 L71.3046047,222.173287 C71.3046047,224.850058 71.3276096,227.183938 73.97092,227.832312 C76.5970894,228.467773 78.4189888,227.256524 79.6851615,224.887464 L139.012593,111.921604 Z"></path>
            </g>
        </g>
    </g>
</svg>