<?xml version="1.0" encoding="UTF-8"?>
<svg width="600px" height="250px" viewBox="0 0 600 250" version="1.1" xmlns="http://www.w3.org/2000/svg" xmlns:xlink="http://www.w3.org/1999/xlink">
    <!-- Generator: Sketch 55.2 (78181) - https://sketchapp.com -->
    <title>free-banner-zh-hant</title>
    <desc>Created with Sketch.</desc>
    <g id="free-banner-zh-hant" stroke="none" stroke-width="1" fill="none" fill-rule="evenodd">
        <g id="Group" transform="translate(102.000000, 63.000000)">
            <g id="Triangle-Elements" transform="translate(0.000000, -0.000000)">
                <polygon id="Triangle" stroke="#FFFFFF" stroke-width="1.98675497" transform="translate(444.000000, 15.500000) rotate(-210.000000) translate(-444.000000, -15.500000) " points="443.657179 5 455 26 433 25.6624927"></polygon>
                <polygon id="Triangle-Copy" stroke="#FFFFFF" stroke-width="1.98675497" transform="translate(6.500000, 112.000000) rotate(10.000000) translate(-6.500000, -112.000000) " points="6.32858939 107 12 117 1 116.839282"></polygon>
                <polygon id="Triangle-Copy-2" fill="#FFFFFF" transform="translate(351.000000, 45.000000) rotate(10.000000) translate(-351.000000, -45.000000) " points="350.71951 37 360 53 342 52.7428516"></polygon>
            </g>
            <path d="M14.9098742,28.6557748 L43.3788742,28.6557748 C45.5838742,28.6557748 46.7108742,29.7827748 46.7108742,31.9387748 L46.7108742,40.1217748 C46.7108742,42.3267748 45.5838742,43.4047748 43.3788742,43.4047748 L14.9098742,43.4047748 C12.7048742,43.4047748 11.5778742,42.2777748 11.5778742,40.1217748 L11.5778742,31.9387748 C11.5778742,29.7827748 12.7048742,28.6557748 14.9098742,28.6557748 Z M43.0358742,34.6827748 L43.0358742,32.5267748 C43.0358742,31.7917748 42.6438742,31.3997748 41.9088742,31.3997748 L16.3798742,31.3997748 C15.6448742,31.3997748 15.2528742,31.8407748 15.2528742,32.5267748 L15.2528742,34.6827748 L43.0358742,34.6827748 Z M43.0358742,37.2797748 L15.2528742,37.2797748 L15.2528742,39.5827748 C15.2528742,40.3177748 15.6448742,40.6607748 16.3798742,40.6607748 L41.9088742,40.6607748 C42.6928742,40.6607748 43.0358742,40.3177748 43.0358742,39.5827748 L43.0358742,37.2797748 Z M27.5028742,49.6277748 L27.5028742,72.2657748 C27.5028742,73.0497748 26.7188742,73.5887748 25.6898742,73.5887748 C24.6608742,73.5887748 23.9748742,73.0497748 23.9748742,72.2657748 L23.9748742,68.5417748 C21.1328742,69.0807748 20.2018742,69.2277748 18.5358742,69.4237748 C16.4288742,69.7177748 9.42187417,70.3547748 8.58887417,70.3547748 C7.31487417,70.3547748 6.57987417,69.6687748 6.57987417,68.4927748 C6.57987417,67.8067748 6.97187417,67.2187748 7.60887417,67.0717748 C7.90287417,66.9737748 8.19687417,66.9737748 9.17687417,66.9247748 C10.0588742,66.9247748 10.2548742,66.8757748 11.0878742,66.8267748 L11.0878742,49.6277748 L7.31487417,49.6277748 C6.48187417,49.6277748 5.99187417,49.0397748 5.99187417,48.0597748 C5.99187417,47.1287748 6.53087417,46.4917748 7.31487417,46.4917748 L51.0718742,46.4917748 C51.8558742,46.4917748 52.3948742,47.1287748 52.3948742,48.1087748 C52.3948742,49.0397748 51.9048742,49.6277748 51.0718742,49.6277748 L27.5028742,49.6277748 Z M23.9748742,49.6277748 L14.5668742,49.6277748 L14.5668742,53.2537748 L23.9748742,53.2537748 L23.9748742,49.6277748 Z M23.9748742,55.7527748 L14.5668742,55.7527748 L14.5668742,59.5257748 L23.9748742,59.5257748 L23.9748742,55.7527748 Z M23.9748742,62.0737748 L14.5668742,62.0737748 L14.5668742,66.6307748 C17.4088742,66.3857748 22.5048742,65.8467748 23.9748742,65.6507748 L23.9748742,62.0737748 Z M31.3248742,55.8507748 L30.0998742,55.8507748 C29.3648742,55.8507748 28.8748742,55.2627748 28.8748742,54.3807748 C28.8748742,53.4987748 29.3648742,52.9107748 30.0998742,52.9107748 L46.8088742,52.9107748 C48.6708742,52.9107748 49.6508742,53.5967748 49.6508742,54.9197748 C49.6508742,57.1737748 46.5148742,62.2697748 42.8888742,65.8957748 C45.0448742,67.4637748 47.6418742,68.7377748 51.0718742,69.8647748 C52.1498742,70.2077748 52.5908742,70.6977748 52.5908742,71.5797748 C52.5908742,72.6577748 51.8068742,73.5397748 50.8758742,73.5397748 C49.0138742,73.5397748 43.5748742,70.7467748 40.3408742,68.1497748 C37.1068742,70.6977748 31.3738742,73.6867748 29.7078742,73.6867748 C28.8258742,73.6867748 28.1398742,72.8537748 28.1398742,71.8247748 C28.1398742,70.8937748 28.4338742,70.5997748 29.9038742,70.0607748 C32.3048742,69.2277748 35.5388742,67.4637748 37.8418742,65.7977748 C35.1958742,63.0537748 32.9418742,59.6237748 31.3248742,55.8507748 Z M44.3588742,55.8507748 L34.7058742,55.8507748 C36.1758742,58.8887748 37.9888742,61.3877748 40.2918742,63.6417748 C42.6928742,61.2897748 45.3878742,57.4187748 45.3878742,56.4387748 C45.3878742,56.0467748 44.9958742,55.8507748 44.3588742,55.8507748 Z M65.5268742,47.4227748 L56.2658742,47.4227748 C55.4818742,47.4227748 54.9428742,46.7857748 54.9428742,45.7567748 C54.9428742,44.7767748 55.4818742,44.1397748 56.2658742,44.1397748 L61.3128742,44.1397748 C60.9698742,42.2777748 60.0388742,38.4557748 59.4018742,36.4957748 L57.0988742,36.4957748 C56.2658742,36.4957748 55.7268742,35.8097748 55.7268742,34.8297748 C55.7268742,33.8497748 56.2658742,33.1637748 57.0988742,33.1637748 L65.4778742,33.1637748 L65.4778742,28.6067748 C65.4778742,27.7247748 66.2128742,27.0877748 67.2908742,27.0877748 C68.3198742,27.0877748 69.1038742,27.7247748 69.1038742,28.6067748 L69.1038742,33.1637748 L77.2868742,33.1637748 C78.0708742,33.1637748 78.6098742,33.8497748 78.6098742,34.8297748 C78.6098742,35.8097748 78.0708742,36.4957748 77.2868742,36.4957748 L75.3758742,36.4957748 C74.7388742,39.3377748 74.0528742,41.6897748 73.1708742,44.1397748 L78.1688742,44.1397748 C78.9038742,44.1397748 79.4428742,44.8257748 79.4428742,45.8057748 C79.4428742,46.7367748 78.9038742,47.4227748 78.1688742,47.4227748 L69.0548742,47.4227748 L69.0548742,52.4207748 L77.6298742,52.4207748 C78.3648742,52.4207748 78.9038742,53.1557748 78.9038742,54.0867748 C78.9038742,55.0177748 78.3648742,55.7037748 77.6298742,55.7037748 L69.0548742,55.7037748 L69.0548742,57.5167748 C71.9948742,59.2807748 73.3668742,60.2117748 76.6008742,62.6127748 C77.2868742,63.1027748 77.6298742,63.6417748 77.6298742,64.2297748 C77.6298742,65.2097748 76.7478742,66.0917748 75.8168742,66.0917748 C75.1798742,66.0917748 74.9348742,65.9447748 74.0038742,65.0627748 C72.4358742,63.6907748 71.1618742,62.6127748 69.0548742,60.8977748 L69.0548742,72.0697748 C69.0548742,72.9517748 68.3198742,73.5397748 67.2908742,73.5397748 C66.2128742,73.5397748 65.5268742,72.9517748 65.5268742,72.0697748 L65.5268742,59.5747748 C63.2728742,63.2007748 61.0678742,66.0917748 58.5198742,68.6887748 C57.3438742,69.9137748 57.0008742,70.1097748 56.2168742,70.1097748 C55.3348742,70.1097748 54.5018742,69.2767748 54.5018742,68.3457748 C54.5018742,67.6107748 54.6488742,67.3657748 56.0208742,66.0917748 C58.8138742,63.5927748 62.1948742,59.4767748 64.4488742,55.7037748 L56.6578742,55.7037748 C55.8738742,55.7037748 55.2858742,55.0177748 55.2858742,54.0867748 C55.2858742,53.1557748 55.8738742,52.4207748 56.6578742,52.4207748 L65.5268742,52.4207748 L65.5268742,47.4227748 Z M71.8478742,36.4957748 L62.8808742,36.4957748 C63.5668742,39.1417748 64.2528742,41.9347748 64.6448742,44.1397748 L69.8388742,44.1397748 C70.5738742,42.0327748 71.3088742,39.2887748 71.8478742,36.4957748 Z M91.4968742,47.8637748 L84.5388742,47.8637748 C84.5388742,55.0667748 83.8038742,61.3877748 82.3338742,66.1897748 C81.7458742,68.1007748 80.4228742,71.2857748 79.7368742,72.5597748 C79.2958742,73.2457748 78.7078742,73.6377748 77.9728742,73.6377748 C76.8458742,73.6377748 75.9638742,72.8537748 75.9638742,71.8247748 C75.9638742,71.3837748 75.9638742,71.3837748 76.8948742,69.3747748 C79.6878742,63.2987748 80.9128742,56.4387748 80.9128742,46.9817748 L80.9128742,35.7607748 C80.9128742,32.9187748 81.8928742,31.7917748 84.6368742,31.5467748 C89.4388742,30.9097748 92.0358742,30.3707748 95.9558742,29.1947748 C97.2298742,28.8027748 97.4258742,28.7537748 97.8668742,28.7537748 C98.9938742,28.7537748 99.7778742,29.5867748 99.7778742,30.7137748 C99.7778742,32.1837748 98.6508742,32.6737748 93.0648742,33.6537748 C92.7218742,33.7517748 92.3788742,33.8007748 91.8398742,33.8987748 C88.6548742,34.4867748 87.2338742,34.6827748 85.7638742,34.7807748 C84.9798742,34.8297748 84.5388742,35.3197748 84.5388742,36.2997748 L84.5388742,44.3357748 L100.267874,44.3357748 C101.100874,44.3357748 101.737874,45.0707748 101.737874,46.0997748 C101.737874,47.1287748 101.149874,47.8637748 100.267874,47.8637748 L95.1228742,47.8637748 L95.1228742,72.0207748 C95.1228742,72.9027748 94.3388742,73.5397748 93.2608742,73.5397748 C92.1828742,73.5397748 91.4968742,72.9517748 91.4968742,72.0207748 L91.4968742,47.8637748 Z" id="最新" fill="#FFFFFF" fill-rule="nonzero"></path>
            <path d="M162.368874,54.7337748 L184.368874,54.7337748 C189.768874,54.7337748 192.568874,57.5337748 192.568874,62.7337748 L192.568874,79.6337748 C192.568874,85.1337748 189.768874,87.7337748 184.368874,87.7337748 L169.168874,87.7337748 L169.168874,108.733775 C169.168874,111.633775 170.068874,112.033775 176.268874,112.033775 C183.568874,112.033775 185.668874,111.533775 186.468874,109.633775 C187.068874,108.433775 187.568874,104.533775 187.668874,101.133775 C187.668874,98.4337748 189.668874,96.7337748 192.768874,96.7337748 C196.268874,96.7337748 198.268874,98.6337748 198.268874,101.833775 C198.268874,107.633775 196.968874,115.133775 195.568874,117.433775 C193.368874,120.833775 188.768874,121.833775 174.668874,121.833775 C160.968874,121.833775 158.468874,120.233775 158.468874,111.433775 L158.468874,87.7337748 L147.368874,87.7337748 C146.268874,98.0337748 142.368874,106.133775 135.568874,112.033775 C129.868874,117.033775 123.668874,120.333775 114.968874,122.733775 C113.668874,123.033775 112.668874,123.233775 111.968874,123.233775 C108.868874,123.233775 106.468874,120.733775 106.468874,117.533775 C106.468874,115.933775 107.268874,114.433775 108.568874,113.433775 C109.368874,112.833775 109.568874,112.733775 112.168874,112.133775 C127.368874,107.733775 134.968874,100.133775 136.368874,87.7337748 L124.768874,87.7337748 C119.368874,87.8337748 116.768874,85.0337748 116.768874,79.6337748 L116.768874,64.2337748 L116.268874,64.6337748 C113.268874,66.9337748 112.568874,67.2337748 110.768874,67.2337748 C108.168874,67.2337748 105.768874,64.8337748 105.768874,62.1337748 C105.768874,60.0337748 106.568874,58.8337748 109.268874,56.8337748 C119.368874,49.1337748 126.568874,41.5337748 132.968874,31.7337748 C134.468874,29.5337748 135.768874,28.6337748 137.768874,28.6337748 C140.768874,28.6337748 143.068874,30.8337748 143.068874,33.7337748 C143.068874,34.0337748 143.068874,34.3337748 142.968874,34.7337748 L167.068874,34.7337748 C171.168874,34.7337748 173.568874,36.3337748 173.568874,39.1337748 C173.568874,42.2337748 170.068874,47.1337748 162.368874,54.7337748 Z M159.268874,63.4337748 L159.268874,79.0337748 L179.968874,79.0337748 C181.368874,79.0337748 181.968874,78.4337748 182.068874,77.0337748 L182.068874,65.6337748 C181.968874,64.2337748 181.268874,63.4337748 179.868874,63.4337748 L159.268874,63.4337748 Z M127.568874,54.7337748 L150.568874,54.7337748 C154.868874,50.5337748 158.868874,45.6337748 158.868874,44.6337748 C158.868874,44.0337748 158.168874,43.7337748 156.868874,43.7337748 L137.268874,43.7337748 L136.868874,44.3337748 C134.368874,47.6337748 131.068874,51.3337748 127.568874,54.7337748 Z M149.068874,63.4337748 L129.168874,63.4337748 C127.768874,63.5337748 127.168874,64.1337748 127.168874,65.6337748 L127.168874,77.0337748 C127.168874,78.4337748 127.768874,79.0337748 129.168874,79.0337748 L149.068874,79.0337748 L149.068874,63.4337748 Z M268.568874,58.3337748 L291.468874,58.3337748 C295.868874,58.3337748 297.868874,60.0337748 297.868874,63.6337748 C297.868874,65.1337748 297.668874,66.5337748 296.968874,69.3337748 C295.868874,74.2337748 293.768874,75.8337748 288.468874,75.7337748 C288.568874,76.3337748 288.668874,77.1337748 288.668874,77.9337748 L288.668874,100.433775 C288.668874,105.033775 286.368874,107.333775 281.768874,107.333775 L223.268874,107.333775 C218.668874,107.333775 216.468874,105.033775 216.468874,100.433775 L216.468874,80.4337748 C213.668874,81.2337748 211.068874,81.8337748 209.768874,81.8337748 C207.268874,81.8337748 205.568874,79.8337748 205.568874,77.1337748 C205.568874,75.4337748 206.468874,74.0337748 207.868874,73.4337748 C208.568874,73.1337748 208.568874,73.1337748 210.768874,72.7337748 C219.468874,71.1337748 225.168874,68.6337748 228.868874,64.8337748 L215.468874,64.8337748 C211.568874,64.8337748 209.468874,63.4337748 209.468874,60.7337748 C209.468874,60.1337748 209.568874,59.4337748 209.868874,58.5337748 C210.568874,56.0337748 210.968874,54.2337748 211.168874,51.7337748 C211.468874,48.0337748 213.368874,46.7337748 218.268874,46.6337748 L235.368874,46.6337748 L235.368874,41.5337748 L211.068874,41.5337748 C209.268874,41.5337748 208.068874,40.1337748 208.068874,37.9337748 C208.068874,35.9337748 209.268874,34.4337748 211.068874,34.4337748 L235.368874,34.4337748 L235.368874,32.0337748 C235.368874,30.0337748 237.368874,28.5337748 240.168874,28.5337748 C242.968874,28.5337748 245.068874,30.0337748 245.068874,32.0337748 L245.068874,34.4337748 L258.868874,34.4337748 L258.868874,32.2337748 C258.868874,30.1337748 260.868874,28.6337748 263.668874,28.6337748 C266.468874,28.6337748 268.568874,30.1337748 268.568874,32.2337748 L268.568874,34.4337748 L287.368874,34.4337748 C291.468874,34.4337748 293.568874,36.5337748 293.568874,40.6337748 L293.568874,46.9337748 C293.568874,51.1337748 291.468874,53.1337748 287.368874,53.1337748 L268.568874,53.1337748 L268.568874,58.3337748 Z M258.868874,71.2337748 L258.868874,64.8337748 L240.468874,64.8337748 C238.868874,67.2337748 236.868874,69.3337748 234.568874,71.2337748 L258.868874,71.2337748 Z M278.268874,81.2337748 L278.268874,78.9337748 C278.268874,77.6337748 277.468874,76.9337748 276.168874,76.9337748 L228.968874,76.9337748 C227.668874,76.9337748 226.968874,77.6337748 226.968874,78.9337748 L226.968874,81.2337748 L278.268874,81.2337748 Z M278.268874,86.6337748 L226.968874,86.6337748 L226.968874,91.1337748 L278.268874,91.1337748 L278.268874,86.6337748 Z M268.568874,71.2337748 L277.268874,71.2337748 C277.468874,69.4337748 278.468874,68.6337748 280.368874,68.6337748 C280.768874,68.6337748 280.968874,68.6337748 282.268874,68.7337748 C283.168874,68.8337748 284.168874,68.9337748 284.968874,68.9337748 C287.168874,68.9337748 287.868874,68.2337748 287.868874,66.1337748 C287.868874,65.2337748 287.368874,64.8337748 285.968874,64.8337748 L268.568874,64.8337748 L268.568874,71.2337748 Z M245.068874,41.5337748 L245.068874,46.6337748 L258.868874,46.6337748 L258.868874,41.5337748 L245.068874,41.5337748 Z M268.568874,41.5337748 L268.568874,46.6337748 L281.768874,46.6337748 C282.668874,46.6337748 283.168874,46.2337748 283.168874,45.2337748 L283.168874,42.9337748 C283.068874,42.0337748 282.668874,41.6337748 281.768874,41.5337748 L268.568874,41.5337748 Z M278.268874,96.5337748 L226.968874,96.5337748 L226.968874,99.3337748 C226.968874,100.633775 227.568874,101.333775 228.968874,101.333775 L276.168874,101.333775 C277.468874,101.333775 278.268874,100.633775 278.268874,99.3337748 L278.268874,96.5337748 Z M258.868874,53.1337748 L244.668874,53.1337748 C244.368874,55.1337748 244.068874,56.7337748 243.468874,58.3337748 L258.868874,58.3337748 L258.868874,53.1337748 Z M221.568874,58.3337748 L233.268874,58.3337748 C233.968874,56.9337748 234.468874,54.9337748 234.768874,53.1337748 L222.168874,53.1337748 C220.968874,53.1337748 220.568874,53.5337748 220.268874,54.6337748 L219.868874,56.5337748 C219.768874,56.8337748 219.768874,57.0337748 219.768874,57.2337748 C219.768874,57.9337748 220.368874,58.3337748 221.568874,58.3337748 Z M237.868874,107.833775 C240.468874,107.833775 242.368874,109.833775 242.368874,112.433775 C242.368874,114.633775 241.368874,115.733775 237.868874,117.033775 C229.768874,120.233775 215.368874,124.033775 211.468874,124.033775 C208.968874,124.033775 206.968874,121.833775 206.968874,119.033775 C206.968874,117.433775 207.868874,115.933775 209.268874,115.233775 C209.968874,114.833775 209.968874,114.833775 212.668874,114.333775 C217.968874,113.333775 225.568874,111.333775 234.068874,108.733775 C236.568874,107.933775 236.968874,107.833775 237.868874,107.833775 Z M267.068874,107.833775 C270.968874,107.833775 282.968874,110.633775 294.368874,114.333775 C297.068874,115.133775 298.268874,116.533775 298.268874,118.833775 C298.268874,121.633775 296.368874,123.733775 293.768874,123.733775 C292.968874,123.733775 292.868874,123.733775 290.168874,122.833775 C282.768874,120.533775 277.368874,119.033775 267.168874,116.533775 C264.068874,115.833775 262.868874,114.633775 262.868874,112.533775 C262.868874,109.733775 264.568874,107.833775 267.068874,107.833775 Z" id="免費" fill="#FFFFFF" fill-rule="nonzero"></path>
            <path d="M329.180874,112.877775 L329.180874,122.789775 C329.180874,123.503775 328.550874,124.007775 327.626874,124.007775 C326.660874,124.007775 326.030874,123.545775 326.030874,122.789775 L326.030874,113.045775 L325.148874,113.129775 C322.082874,113.297775 314.690874,113.507775 311.456874,113.507775 C309.188874,113.507775 308.726874,113.255775 308.726874,111.953775 C308.726874,111.197775 309.020874,110.777775 309.650874,110.651775 C309.944874,110.567775 309.944874,110.567775 312.674874,110.567775 L318.050874,110.525775 L323.636874,110.483775 C320.990874,108.425775 319.016874,106.997775 317.504874,106.073775 C316.832874,105.653775 316.580874,105.317775 316.580874,104.813775 C316.580874,104.057775 317.252874,103.343775 317.966874,103.343775 C318.554874,103.343775 318.764874,103.469775 320.612874,104.855775 C322.460874,103.511775 323.972874,102.209775 325.064874,101.201775 C325.274874,100.991775 325.316874,100.949775 325.484874,100.823775 L309.272874,100.823775 C308.558874,100.823775 308.180874,100.361775 308.180874,99.5217748 C308.180874,98.6817748 308.600874,98.1777748 309.272874,98.1777748 L326.030874,98.1777748 L326.030874,95.2797748 L312.842874,95.2797748 C312.254874,95.2797748 311.834874,94.7337748 311.834874,94.0197748 C311.834874,93.2637748 312.254874,92.7597748 312.842874,92.7597748 L326.030874,92.7597748 L326.030874,89.9877748 L310.868874,89.9877748 C310.238874,89.9877748 309.860874,89.5257748 309.860874,88.7277748 C309.860874,87.9297748 310.238874,87.4677748 310.868874,87.4677748 L326.030874,87.4677748 L326.030874,85.2837748 C326.030874,84.5697748 326.702874,84.1077748 327.626874,84.1077748 C328.550874,84.1077748 329.180874,84.5697748 329.180874,85.2837748 L329.180874,87.4677748 L344.426874,87.4677748 C345.056874,87.4677748 345.476874,87.9717748 345.476874,88.7277748 C345.476874,89.4837748 345.056874,89.9877748 344.426874,89.9877748 L329.180874,89.9877748 L329.180874,92.7597748 L342.410874,92.7597748 C342.998874,92.7597748 343.418874,93.3057748 343.418874,94.0197748 C343.418874,94.7337748 342.998874,95.2797748 342.410874,95.2797748 L329.180874,95.2797748 L329.180874,98.1777748 L346.064874,98.1777748 C346.694874,98.1777748 347.156874,98.7237748 347.156874,99.5217748 C347.156874,100.319775 346.736874,100.823775 346.064874,100.823775 L327.416874,100.823775 C327.752874,101.117775 327.920874,101.453775 327.920874,101.873775 C327.920874,102.755775 326.996874,103.553775 322.754874,106.493775 C323.888874,107.333775 324.854874,108.089775 326.534874,109.475775 L326.786874,109.265775 L327.080874,109.055775 C328.886874,107.795775 331.910874,105.401775 334.052874,103.469775 C334.724874,102.881775 335.144874,102.671775 335.648874,102.671775 C336.488874,102.671775 337.244874,103.385775 337.244874,104.141775 C337.244874,104.519775 337.034874,104.939775 336.572874,105.317775 C335.438874,106.325775 332.120874,108.677775 329.558874,110.315775 L330.818874,110.315775 C333.674874,110.231775 337.664874,110.063775 340.688874,109.853775 C340.646874,109.769775 340.310874,109.475775 340.184874,109.349775 L339.932874,109.139775 C339.722874,108.929775 339.386874,108.635775 339.050874,108.341775 C338.504874,107.879775 338.336874,107.585775 338.336874,107.165775 C338.336874,106.409775 338.966874,105.737775 339.722874,105.737775 C340.268874,105.737775 340.562874,105.863775 341.192874,106.451775 C345.854874,110.399775 347.114874,111.743775 347.114874,112.751775 C347.114874,113.591775 346.400874,114.305775 345.518874,114.305775 C344.972874,114.305775 344.762874,114.179775 344.216874,113.549775 L343.334874,112.541775 C343.208874,112.373775 343.040874,112.205775 342.914874,112.079775 L342.410874,112.121775 C341.444874,112.205775 341.276874,112.205775 338.294874,112.373775 C335.018874,112.541775 331.994874,112.709775 329.180874,112.877775 Z M319.646874,114.767775 C320.402874,114.767775 321.158874,115.523775 321.158874,116.321775 C321.158874,116.909775 320.906874,117.203775 320.066874,117.791775 C315.530874,120.899775 311.540874,123.083775 310.280874,123.083775 C309.440874,123.083775 308.768874,122.369775 308.768874,121.487775 C308.768874,120.689775 309.020874,120.437775 310.448874,119.765775 C312.632874,118.841775 316.160874,116.825775 318.512874,115.187775 C318.932874,114.893775 319.310874,114.767775 319.646874,114.767775 Z M335.648874,114.305775 C336.362874,114.305775 338.882874,115.397775 342.368874,117.245775 C346.022874,119.177775 346.652874,119.681775 346.652874,120.605775 C346.652874,121.403775 345.896874,122.201775 345.140874,122.201775 C344.678874,122.201775 344.552874,122.159775 343.502874,121.571775 C339.932874,119.555775 338.798874,118.967775 335.312874,117.287775 C334.430874,116.867775 334.178874,116.573775 334.178874,115.943775 C334.178874,115.103775 334.892874,114.305775 335.648874,114.305775 Z M357.404874,122.579775 L357.404874,102.671775 C355.808874,107.333775 354.506874,110.483775 352.742874,113.591775 C352.322874,114.347775 351.902874,114.683775 351.272874,114.683775 C350.432874,114.683775 349.676874,113.927775 349.676874,113.129775 C349.676874,112.667775 349.760874,112.457775 350.642874,111.029775 C352.910874,107.291775 355.556874,101.243775 356.942874,96.4557748 L351.398874,96.4557748 C350.684874,96.4557748 350.180874,95.8257748 350.180874,94.9017748 C350.180874,93.9777748 350.684874,93.3897748 351.398874,93.3897748 L357.404874,93.3897748 L357.404874,85.7877748 C357.404874,85.0317748 358.076874,84.4857748 359.000874,84.4857748 C359.882874,84.4857748 360.554874,85.0317748 360.554874,85.7877748 L360.554874,93.3897748 L365.552874,93.3897748 C366.266874,93.3897748 366.770874,94.0197748 366.770874,94.9017748 C366.770874,95.8257748 366.266874,96.4557748 365.552874,96.4557748 L360.554874,96.4557748 L360.554874,99.9837748 C362.738874,101.999775 364.880874,104.225775 366.350874,105.947775 C366.854874,106.535775 367.022874,106.913775 367.022874,107.375775 C367.022874,108.173775 366.266874,108.887775 365.468874,108.887775 C364.754874,108.887775 364.586874,108.761775 363.830874,107.753775 C362.948874,106.493775 362.024874,105.317775 360.554874,103.427775 L360.554874,122.579775 C360.554874,123.335775 359.882874,123.839775 358.958874,123.839775 C358.034874,123.839775 357.404874,123.335775 357.404874,122.579775 Z M380.084874,118.799775 L380.084874,100.739775 C377.270874,105.905775 373.826874,110.567775 369.710874,114.809775 C368.534874,115.985775 368.240874,116.195775 367.526874,116.195775 C366.686874,116.195775 365.930874,115.397775 365.930874,114.557775 C365.930874,113.927775 366.056874,113.759775 367.610874,112.331775 C372.020874,108.131775 376.850874,101.537775 379.328874,96.4557748 L368.996874,96.4557748 C368.240874,96.4557748 367.694874,95.8257748 367.694874,94.9437748 C367.694874,94.0197748 368.240874,93.3897748 368.996874,93.3897748 L380.084874,93.3897748 L380.084874,85.8717748 C380.084874,85.0317748 380.714874,84.4857748 381.638874,84.4857748 C382.604874,84.4857748 383.234874,85.0317748 383.234874,85.8717748 L383.234874,93.3897748 L388.274874,93.3897748 C389.072874,93.3897748 389.576874,94.0197748 389.576874,94.9437748 C389.576874,95.8257748 389.072874,96.4557748 388.274874,96.4557748 L383.234874,96.4557748 L383.234874,119.975775 C383.234874,122.705775 382.226874,123.461775 378.614874,123.461775 C373.616874,123.461775 372.440874,123.125775 372.440874,121.613775 C372.440874,120.605775 373.070874,120.017775 374.204874,120.017775 C374.330874,120.017775 374.456874,120.017775 374.792874,120.059775 C376.220874,120.227775 377.732874,120.311775 378.614874,120.311775 C379.706874,120.311775 380.084874,119.933775 380.084874,118.799775 Z" id="素材" fill="#FFFFFF" fill-rule="nonzero"></path>
        </g>
    </g>
</svg>