<svg width="600" height="250" xmlns="http://www.w3.org/2000/svg"><g fill="none" fill-rule="evenodd"><path stroke="#FFF" stroke-width="1.987" d="M551.771 86.422l-20.323-12.515 19.221-10.708zM109.424 169.046l3.848 10.833-10.805-2.068z"/><path fill="#FFF" d="M454.337 99.073l6.361 17.368-17.682-3.379z"/><path d="M105.745 107.209a27.33 27.33 0 0 1-2.573 3.21 33.513 33.513 0 0 1-3.111 2.915 31.244 31.244 0 0 0 4.557 2.303c1.666.686 3.267 1.208 4.802 1.568.457.098.588.408.392.93l-.735 1.569c-.196.392-.539.506-1.029.343a46.999 46.999 0 0 1-5.537-2.132 58.27 58.27 0 0 1-5.096-2.67c-3.136 2.058-7.138 4.001-12.005 5.83-.294.131-.498.18-.613.148-.114-.033-.22-.13-.318-.294l-.833-1.715c-.229-.392-.114-.67.343-.833 4.181-1.503 7.742-3.16 10.682-4.974 2.94-1.813 5.39-3.814 7.35-6.002.294-.327.368-.62.22-.882-.147-.262-.498-.392-1.053-.392H85.851c-.392 0-.588-.213-.588-.637v-1.715c0-.392.196-.588.588-.588h16.66c1.927 0 3.16.367 3.7 1.102.539.735.383 1.707-.466 2.916zm12.593 31.899c0 .457-.229.686-.686.686h-2.009c-.457 0-.686-.229-.686-.686V95.302c0-.458.229-.686.686-.686h2.009c.457 0 .686.228.686.686v43.806zm-6.664-12.348c.523-.098.8.016.833.343l.294 1.715c.065.392-.147.62-.637.686a128.381 128.381 0 0 1-7.546 1.054c-1.34.146-2.695.285-4.067.416a91.14 91.14 0 0 1-3.969.294c-.947.065-2.082.114-3.405.147a343.87 343.87 0 0 1-8.11.098c-1.307 0-2.417-.017-3.332-.05a.75.75 0 0 1-.514-.195c-.148-.13-.221-.278-.221-.441v-1.666c0-.196.073-.351.22-.466a.814.814 0 0 1 .515-.171c.751.032 1.666.057 2.744.073 1.078.017 2.213.025 3.405.025 1.193 0 2.401-.017 3.627-.05 1.225-.032 2.36-.065 3.405-.097v-7.007c0-.196.057-.368.172-.515a.558.558 0 0 1 .465-.22h2.107c.163 0 .31.073.441.22a.75.75 0 0 1 .196.515v6.81c1.176-.097 2.376-.203 3.602-.318 1.225-.114 2.425-.237 3.601-.367 1.176-.13 2.295-.262 3.357-.392 1.061-.13 2-.278 2.817-.441zm-10.339-30.43c.49 0 .735.23.735.687v1.568c0 .49-.245.735-.735.735H90.261c-.49 0-.735-.245-.735-.735v-1.568c0-.458.245-.686.735-.686h11.074zm41.65.54c0 1.274-.073 2.515-.22 3.724a34.537 34.537 0 0 1-.613 3.528c.392 1.34.955 2.67 1.69 3.993.736 1.323 1.601 2.58 2.597 3.773a24.375 24.375 0 0 0 3.259 3.234c1.176.964 2.385 1.74 3.626 2.328.196.098.286.228.27.392a1.797 1.797 0 0 1-.123.49l-.98 1.617a.862.862 0 0 1-.343.343c-.13.065-.343.016-.637-.147-.947-.458-1.935-1.11-2.965-1.96a37.19 37.19 0 0 1-3.038-2.818 31.304 31.304 0 0 1-2.768-3.283c-.85-1.16-1.552-2.278-2.107-3.356a28.313 28.313 0 0 1-4.386 7.227 28.744 28.744 0 0 1-6.394 5.66 1.524 1.524 0 0 1-.539.196.489.489 0 0 1-.49-.196l-1.225-1.617c-.098-.13-.114-.294-.049-.49a.782.782 0 0 1 .343-.441 22.012 22.012 0 0 0 4.826-4.018 26.175 26.175 0 0 0 6.076-11.49c.54-2.206.793-4.452.76-6.738 0-.523.196-.784.588-.784l2.303.147c.36 0 .539.228.539.686zm22.883 41.454a.481.481 0 0 1-.245.44.945.945 0 0 1-.49.148h-24.549c-1.535 0-2.54-.286-3.014-.858-.473-.571-.71-1.527-.71-2.866v-9.604c0-.458.229-.686.686-.686h2.009c.457 0 .686.228.686.686v9.359c0 .457.073.743.22.857.148.115.45.172.907.172h23.765a.85.85 0 0 1 .49.171c.163.115.245.253.245.417v1.764zm-1.47-11.76c0 .457-.229.686-.686.686h-2.009c-.457 0-.686-.229-.686-.686V95.302c0-.458.229-.686.686-.686h2.009c.457 0 .686.228.686.686v31.262zM244.093 134.634h-50.2c-1.533 0-2.767-.084-3.7-.25-.933-.167-1.667-.5-2.2-1-.533-.5-.9-1.2-1.1-2.1-.2-.9-.3-2.117-.3-3.65v-25.9c0-1.4.117-2.534.35-3.4.233-.867.633-1.534 1.2-2 .567-.467 1.283-.784 2.15-.95.867-.167 1.9-.25 3.1-.25h50.7c1.4 0 2.533.066 3.4.2.867.133 1.55.433 2.05.9.5.466.85 1.133 1.05 2 .2.866.3 2.033.3 3.5v25.9c0 1.466-.1 2.666-.3 3.6-.2.933-.55 1.65-1.05 2.15s-1.183.833-2.05 1c-.867.166-2 .25-3.4.25zm17.6 20.3h-36v31.6c0 1.333-.667 2-2 2h-9.9c-1.333 0-2-.667-2-2v-31.6h-36c-.867 0-1.417-.2-1.65-.6-.233-.4-.35-.967-.35-1.7v-6.9c0-.734.117-1.284.35-1.65.233-.367.783-.55 1.65-.55h85.9c1.4 0 2.1.733 2.1 2.2v6.9c0 1.533-.7 2.3-2.1 2.3zm-24.5-46.5c0-.867-.083-1.417-.25-1.65-.167-.234-.65-.35-1.45-.35h-33.2c-.867 0-1.417.1-1.65.3-.233.2-.35.766-.35 1.7v12.9c0 .933.117 1.5.35 1.7.233.2.783.3 1.65.3h33.2c.8 0 1.283-.117 1.45-.35.167-.234.25-.784.25-1.65v-12.9zm118.5 64.8h-85.9c-.867 0-1.417-.2-1.65-.6-.233-.4-.35-.9-.35-1.5v-7c0-.734.117-1.267.35-1.6.233-.334.783-.5 1.65-.5h21.6v-13.3h-4.2c-2.933 0-4.883-.534-5.85-1.6-.967-1.067-1.45-2.867-1.45-5.4v-17.2c0-1.267.1-2.317.3-3.15.2-.834.55-1.5 1.05-2s1.2-.867 2.1-1.1c.9-.234 2.083-.35 3.55-.35h43.4c.867 0 1.3-.434 1.3-1.3v-6.1c0-.8-.433-1.2-1.3-1.2h-47.9c-.733 0-1.25-.134-1.55-.4-.3-.267-.45-.8-.45-1.6v-7.3c0-1.267.667-1.9 2-1.9h55.5c1.467 0 2.683.1 3.65.3.967.2 1.7.55 2.2 1.05.5.5.85 1.183 1.05 2.05.2.866.3 1.966.3 3.3v17.1c0 1.4-.1 2.533-.3 3.4-.2.866-.55 1.55-1.05 2.05-.5.5-1.233.85-2.2 1.05-.967.2-2.183.3-3.65.3h-43.3c-.8 0-1.2.366-1.2 1.1v6.5c0 .8.433 1.2 1.3 1.2h50.6c.733 0 1.267.083 1.6.25.333.166.5.716.5 1.65v7.3c0 1.333-.667 2-2 2h-11.3v13.3h21.6c1.4 0 2.1.7 2.1 2.1v7c0 1.4-.7 2.1-2.1 2.1zm-35.5-11.2v-13.3h-14.9v13.3h14.9zM375.191 151.14c.952 0 1.904.154 2.856.462a7.753 7.753 0 0 1 2.625 1.47c.798.672 1.463 1.526 1.995 2.562.532 1.036.868 2.268 1.008 3.696h5.208v-7.938c0-.392.196-.588.588-.588h1.596c.392 0 .588.196.588.588v18.48c0 .392-.196.588-.588.588h-1.596c-.392 0-.588-.196-.588-.588v-8.022h-5.25c-.14 1.4-.483 2.61-1.029 3.633-.546 1.022-1.211 1.869-1.995 2.54a7.823 7.823 0 0 1-2.604 1.492 8.866 8.866 0 0 1-2.856.483 8.392 8.392 0 0 1-3.003-.567 7.662 7.662 0 0 1-2.667-1.722c-.784-.77-1.414-1.75-1.89-2.94s-.714-2.611-.714-4.263c0-1.652.238-3.066.714-4.242.476-1.176 1.106-2.142 1.89-2.898a7.548 7.548 0 0 1 2.667-1.68 8.791 8.791 0 0 1 3.045-.546zm24.78 37.296a.44.44 0 0 1-.189.357c-.126.098-.245.147-.357.147h-22.47c-1.316 0-2.177-.245-2.583-.735-.406-.49-.609-1.323-.609-2.5v-2.94c0-1.175.245-1.966.735-2.372.49-.406 1.365-.61 2.625-.61h18.144c.392 0 .644-.055.756-.167.112-.112.168-.378.168-.798v-2.184c0-.42-.049-.686-.147-.798-.098-.112-.343-.168-.735-.168h-21.042a.708.708 0 0 1-.399-.126.386.386 0 0 1-.189-.336v-1.512c0-.14.063-.252.189-.336a.708.708 0 0 1 .399-.126h21.504c.672 0 1.218.049 1.638.147.42.098.756.259 1.008.483.252.224.427.539.525.945.098.406.147.903.147 1.49v2.94c0 1.177-.245 1.968-.735 2.374-.49.406-1.365.609-2.625.609h-18.186c-.392 0-.637.056-.735.168-.098.112-.147.378-.147.798v2.352c0 .392.056.65.168.777.112.126.364.189.756.189h21.798c.14 0 .273.042.399.126a.386.386 0 0 1 .189.336v1.47zm-19.152-27.93c0-2.184-.539-3.878-1.617-5.082-1.078-1.204-2.429-1.806-4.053-1.806-1.708 0-3.031.623-3.969 1.869-.938 1.246-1.407 2.919-1.407 5.019s.49 3.794 1.47 5.082c.98 1.288 2.282 1.932 3.906 1.932.812 0 1.561-.161 2.247-.483a5.076 5.076 0 0 0 1.785-1.407c.504-.616.903-1.358 1.197-2.226.294-.868.441-1.834.441-2.898zm18.27 9.912c0 .392-.196.588-.588.588h-1.596c-.392 0-.588-.196-.588-.588v-19.74c0-.392.196-.588.588-.588h1.596c.392 0 .588.196.588.588v19.74zm38.094 17.808c0 .392-.196.588-.588.588h-1.722c-.392 0-.588-.196-.588-.588v-37.548c0-.392.196-.588.588-.588h1.722c.392 0 .588.196.588.588v37.548zm-25.872-8.904c-1.26-.056-2.107-.315-2.541-.777-.434-.462-.651-1.281-.651-2.457v-8.358c0-1.176.245-1.967.735-2.373.49-.406 1.365-.61 2.625-.61h10.584c.392 0 .644-.055.756-.167.112-.112.168-.378.168-.798v-7.056c0-.42-.049-.686-.147-.798-.098-.112-.343-.168-.735-.168h-13.23a.708.708 0 0 1-.399-.126.386.386 0 0 1-.189-.336v-1.596c0-.14.063-.252.189-.336a.708.708 0 0 1 .399-.126h13.692c.672 0 1.218.049 1.638.147.42.098.756.259 1.008.483.252.224.427.539.525.945.098.406.147.903.147 1.49v7.98c0 1.177-.245 1.968-.735 2.374-.49.406-1.365.609-2.625.609h-10.626c-.392 0-.637.056-.735.168-.098.112-.147.378-.147.798v7.644c0 .644.308.966.924.966 3.332.056 6.531-.07 9.597-.378a75.59 75.59 0 0 0 8.925-1.428c.392-.084.63.056.714.42l.252 1.386c.084.364-.098.602-.546.714a60.828 60.828 0 0 1-4.683.86 93.845 93.845 0 0 1-4.998.589 88.43 88.43 0 0 1-5.061.315 69.42 69.42 0 0 1-4.83 0zm65.352-1.848c0 .392-.196.588-.588.588h-1.722c-.392 0-.588-.196-.588-.588v-14.28h-8.316v5.25c0 1.176-.224 1.967-.672 2.373-.448.406-1.288.609-2.52.609h-11.55c-.672 0-1.211-.042-1.617-.126-.406-.084-.728-.245-.966-.483a1.835 1.835 0 0 1-.483-.924c-.084-.378-.126-.861-.126-1.45v-12.977c0-1.176.224-1.967.672-2.373.448-.406 1.288-.61 2.52-.61h11.55c.672 0 1.211.043 1.617.127.406.084.728.238.966.462.238.224.399.532.483.924.084.392.126.882.126 1.47v5.208h8.316v-9.996c0-.392.196-.588.588-.588h1.722c.392 0 .588.196.588.588v26.796zm-25.242-22.47c-.392 0-.658.077-.798.23-.14.155-.21.442-.21.862v11.718c0 .42.07.707.21.86.14.155.406.232.798.232h10.122c.392 0 .658-.077.798-.231.14-.154.21-.441.21-.861v-11.718c0-.42-.07-.707-.21-.861-.14-.154-.406-.231-.798-.231h-10.122zm26.544 32.55c0 .168-.07.294-.21.378a.81.81 0 0 1-.42.126h-21.168c-1.316 0-2.177-.245-2.583-.735-.406-.49-.609-1.31-.609-2.457v-8.232c0-.392.196-.588.588-.588h1.722c.392 0 .588.196.588.588v8.022c0 .392.063.637.189.735.126.098.385.147.777.147h20.496c.14 0 .28.049.42.147.14.098.21.217.21.357v1.512zm37.38-16.212c0 .392-.182.588-.546.588h-22.68c-1.232 0-2.072-.203-2.52-.61-.448-.405-.672-1.196-.672-2.372v-13.65c0-1.176.224-1.967.672-2.373.448-.406 1.288-.61 2.52-.61h22.386c.364 0 .546.183.546.547v1.386c0 .392-.182.588-.546.588h-21.672c-.392 0-.658.077-.798.23-.14.155-.21.442-.21.862v4.956h22.092c.392 0 .588.154.588.462v1.428c0 .364-.182.546-.546.546h-22.134v4.998c0 .392.07.672.21.84.14.168.406.252.798.252h21.966c.364 0 .546.182.546.546v1.386zm4.578 8.316c.14 0 .28.049.42.147.14.098.21.23.21.399v1.428c0 .14-.07.266-.21.378a.672.672 0 0 1-.42.168h-35.7a.643.643 0 0 1-.441-.168.498.498 0 0 1-.189-.378v-1.428c0-.168.063-.301.189-.4a.698.698 0 0 1 .441-.146h35.7z" fill="#FFF" fill-rule="nonzero"/></g></svg>