<svg width="640" height="400" xmlns="http://www.w3.org/2000/svg"><g fill="none" fill-rule="evenodd"><g stroke="#E4E6E7"><path d="M372 352v14a8 8 0 008 8h8a12 12 0 110 24H252h0a12 12 0 110-24h9a8 8 0 008-8v-14" stroke-width="4" fill="#FDFDFD"/><path d="M256.5 375H300M314.5 375.5H327" stroke-width="2" stroke-linecap="round"/></g><g transform="translate(64)" stroke="#E4E6E7"><rect stroke-width="4" fill="#FDFDFD" x="2" y="2" width="508" height="350" rx="8"/><path d="M1 307h511" stroke-width="2"/><path d="M250.5 13H263" stroke-width="2" stroke-linecap="round"/><circle cx="256" cy="329" r="8"/></g><g transform="translate(84 19)"><rect fill="#F6F7F7" width="473" height="267" rx="8"/><path fill="#FFF" d="M76.5 0h320v267h-320z"/><path d="M457 0H8.5a8 8 0 00-8 8v134.4h0M.5 169.4v40.7M.5 228.3v30.3a8 8 0 008 8h456a8 8 0 008-8V21.4h0" stroke="#E4E6E7" stroke-width="2"/></g><g transform="translate(178 223)"><rect fill="#E4E6E7" y="1" width="21" height="6" rx="3"/><g transform="translate(54)"><rect fill="#E4E6E7" y="3" width="230" height="2" rx="1"/><rect fill="#AEB4B7" x="7" y="3" width="123" height="2" rx="1"/><circle stroke="#E4E6E7" fill="#FDFDFD" cx="7" cy="4" r="4"/><circle stroke="#E4E6E7" fill="#FDFDFD" cx="130" cy="4" r="4"/></g></g><g transform="translate(178 239)"><rect fill="#E4E6E7" y="3" width="13" height="6" rx="3"/><g transform="translate(54)" stroke="#E4E6E7"><rect x=".5" y=".5" width="229" height="11" rx="5.5"/><path d="M76.8.5v10M153.2.5v10" stroke-linecap="square"/></g></g><g transform="translate(178 259)"><rect fill="#E4E6E7" y="3" width="13" height="6" rx="3"/><g transform="translate(54)" stroke="#E4E6E7"><rect x=".5" y=".5" width="229" height="11" rx="5.5"/><path d="M76.8.5v10M153.2.5v10" stroke-linecap="square"/></g></g></g></svg>