<svg width="600" height="250" xmlns="http://www.w3.org/2000/svg"><g fill="none" fill-rule="evenodd"><path stroke="#FFF" stroke-width="1.987" d="M551.864 80.422l-20.323-12.515 19.222-10.708zM109.517 163.046l3.849 10.833-10.805-2.068z"/><path fill="#FFF" d="M454.43 93.073l6.362 17.368-17.682-3.379z"/><path d="M52.176 112.934c-.318 0-.594-.098-.827-.294a.922.922 0 0 1-.349-.735V88.014c0-.343.104-.625.312-.845.209-.221.484-.331.827-.331.368 0 .65.104.846.312.196.208.294.496.294.864v22.935h12.57c.319 0 .57.086.753.257.184.172.276.417.276.735 0 .319-.092.564-.276.735-.183.172-.434.258-.753.258H52.176zm39.549-1.213c.073.147.11.294.11.44 0 .27-.11.497-.331.68a1.17 1.17 0 0 1-.772.277c-.196 0-.386-.062-.57-.184a1.174 1.174 0 0 1-.422-.515l-2.794-6.395h-14.26l-2.83 6.395c-.221.466-.564.699-1.03.699a1.1 1.1 0 0 1-.753-.276.911.911 0 0 1-.313-.717c0-.171.025-.306.074-.404L78.566 87.61c.22-.54.625-.809 1.213-.809.27 0 .52.074.754.22.232.148.398.344.496.589l10.696 24.11zm-18.194-7.682h12.533l-6.248-14.224-6.285 14.224zm27.345 9.079c-.343 0-.612-.11-.808-.331-.196-.22-.294-.503-.294-.846V89.006h-8.49c-.32 0-.57-.085-.754-.257-.184-.172-.276-.417-.276-.735 0-.319.092-.564.276-.735.184-.172.435-.257.753-.257h19.187c.294 0 .539.091.735.275a.938.938 0 0 1 .294.717.938.938 0 0 1-.294.717 1.033 1.033 0 0 1-.735.275h-8.454v22.935c0 .343-.104.625-.313.846-.208.22-.483.33-.827.33zm15.4-.184c-.342 0-.63-.11-.863-.331-.233-.22-.35-.49-.35-.809V88.161c0-.319.117-.588.35-.809.233-.22.52-.33.864-.33h13.967c.318 0 .57.085.753.257.184.171.276.416.276.735 0 .294-.092.527-.276.698-.184.172-.435.258-.753.258h-12.938v9.813h12.203c.318 0 .57.086.753.257.184.172.276.417.276.735 0 .319-.092.564-.276.736-.184.171-.435.257-.753.257h-12.203v10.218h12.938c.318 0 .57.08.753.239.184.159.276.398.276.716 0 .319-.092.564-.276.735-.184.172-.435.258-.753.258h-13.967zm27.677.294c-1.813 0-3.559-.288-5.237-.864-1.679-.576-2.996-1.354-3.951-2.334-.319-.27-.478-.625-.478-1.066 0-.27.08-.502.239-.698.159-.196.337-.294.533-.294.245 0 .526.122.845.367 2.303 1.912 4.986 2.867 8.05 2.867 2.23 0 3.95-.447 5.163-1.341 1.213-.895 1.82-2.163 1.82-3.804 0-.956-.294-1.728-.882-2.316-.588-.588-1.336-1.047-2.242-1.378-.907-.331-2.12-.668-3.64-1.011-2.008-.441-3.632-.894-4.87-1.36a7.97 7.97 0 0 1-3.142-2.113c-.857-.944-1.286-2.212-1.286-3.805 0-1.445.386-2.726 1.158-3.84.771-1.115 1.856-1.98 3.252-2.592 1.397-.612 3.002-.919 4.815-.919 1.691 0 3.284.276 4.778.827 1.495.552 2.733 1.342 3.713 2.371.318.319.478.674.478 1.066 0 .27-.08.502-.24.698-.159.196-.336.294-.532.294-.245 0-.527-.122-.846-.367-1.323-1.078-2.517-1.826-3.583-2.242-1.066-.417-2.322-.625-3.768-.625-2.18 0-3.883.466-5.109 1.397-1.225.93-1.837 2.23-1.837 3.896 0 1.004.27 1.82.808 2.444.54.625 1.244 1.121 2.114 1.489.87.367 1.99.722 3.363 1.065l.955.22c1.985.491 3.553.944 4.705 1.36a7.227 7.227 0 0 1 2.922 1.93c.796.87 1.195 2.04 1.195 3.51 0 1.397-.386 2.64-1.158 3.731-.772 1.09-1.862 1.936-3.271 2.536-1.41.6-3.02.9-4.834.9zm21.281-.11c-.343 0-.612-.11-.808-.331-.196-.22-.294-.503-.294-.846V89.006h-8.49c-.32 0-.57-.085-.754-.257-.184-.172-.276-.417-.276-.735 0-.319.092-.564.276-.735.184-.172.435-.257.753-.257h19.186c.295 0 .54.091.736.275a.938.938 0 0 1 .294.717.938.938 0 0 1-.294.717 1.033 1.033 0 0 1-.736.275h-8.453v22.935c0 .343-.104.625-.313.846-.208.22-.484.33-.827.33zM187.748 156.464c-1.92 0-3.46-.596-4.62-1.789-1.158-1.192-1.738-2.748-1.738-4.668V91.894c0-1.92.547-3.41 1.64-4.47 1.092-1.06 2.599-1.59 4.52-1.59h34.867c4.04 0 6.06 1.722 6.06 5.166 0 3.378-2.02 5.066-6.06 5.066h-28.41v19.073h26.423c4.04 0 6.06 1.722 6.06 5.166 0 3.377-2.02 5.066-6.06 5.066h-26.424v24.636c0 1.92-.563 3.476-1.688 4.668-1.126 1.193-2.65 1.789-4.57 1.789zm105.894-8.643c.795 1.192 1.192 2.351 1.192 3.477 0 1.523-.612 2.781-1.838 3.775-1.225.993-2.665 1.49-4.32 1.49-1.06 0-2.07-.248-3.03-.745s-1.772-1.242-2.434-2.235L270 133.517c-1.325-2.12-2.732-3.61-4.222-4.47-1.49-.862-3.427-1.292-5.811-1.292h-9.736v22.252c0 1.986-.562 3.56-1.688 4.718-1.126 1.16-2.65 1.739-4.57 1.739-1.92 0-3.46-.58-4.619-1.739-1.159-1.159-1.738-2.732-1.738-4.718V91.894c0-1.92.546-3.41 1.639-4.47 1.092-1.06 2.599-1.59 4.52-1.59h24.834c7.947 0 13.99 1.772 18.13 5.315 4.138 3.543 6.208 8.659 6.208 15.348 0 5.43-1.54 9.884-4.62 13.36-3.079 3.477-7.433 5.713-13.062 6.706 1.92.463 3.609 1.291 5.066 2.483 1.457 1.192 2.88 2.848 4.271 4.967l9.04 13.808zm-26.821-29.9c4.834 0 8.377-.911 10.629-2.732 2.252-1.821 3.377-4.62 3.377-8.394 0-3.841-1.125-6.64-3.377-8.394-2.252-1.755-5.795-2.633-10.63-2.633h-16.688v22.153h16.689zm45.993 37.947c-1.92 0-3.427-.53-4.52-1.59-1.092-1.06-1.639-2.55-1.639-4.47V91.894c0-1.92.547-3.41 1.64-4.47 1.092-1.06 2.599-1.59 4.52-1.59h35.86c1.92 0 3.41.43 4.47 1.292 1.06.86 1.59 2.086 1.59 3.675 0 1.656-.53 2.93-1.59 3.825-1.06.894-2.55 1.34-4.47 1.34h-29.503v19.272h27.516c1.921 0 3.411.43 4.47 1.292 1.06.86 1.59 2.119 1.59 3.775 0 1.589-.53 2.814-1.59 3.675-1.059.861-2.549 1.292-4.47 1.292h-27.516v20.463h29.503c1.92 0 3.41.447 4.47 1.341 1.06.894 1.59 2.169 1.59 3.825 0 1.59-.53 2.814-1.59 3.675-1.06.861-2.55 1.292-4.47 1.292h-35.86zm58.51 0c-1.92 0-3.427-.53-4.52-1.59-1.092-1.06-1.639-2.55-1.639-4.47V91.894c0-1.92.547-3.41 1.64-4.47 1.092-1.06 2.599-1.59 4.52-1.59h35.86c1.92 0 3.41.43 4.47 1.292 1.06.86 1.59 2.086 1.59 3.675 0 1.656-.53 2.93-1.59 3.825-1.06.894-2.55 1.34-4.47 1.34h-29.503v19.272h27.516c1.92 0 3.41.43 4.47 1.292 1.06.86 1.59 2.119 1.59 3.775 0 1.589-.53 2.814-1.59 3.675-1.06.861-2.55 1.292-4.47 1.292h-27.516v20.463h29.503c1.92 0 3.41.447 4.47 1.341 1.06.894 1.59 2.169 1.59 3.825 0 1.59-.53 2.814-1.59 3.675-1.06.861-2.55 1.292-4.47 1.292h-35.86zM348.888 193.232a1.37 1.37 0 0 1-.98-.376 1.216 1.216 0 0 1-.396-.918v-26.827c0-.361.132-.667.396-.918a1.37 1.37 0 0 1 .98-.375h15.855c.361 0 .646.097.855.292.209.195.313.473.313.834 0 .334-.104.598-.313.793-.209.195-.494.292-.855.292h-14.686v11.14h13.851c.362 0 .647.097.856.292.208.195.312.473.312.834 0 .362-.104.64-.312.835-.209.195-.494.292-.856.292h-13.851v11.599h14.686c.361 0 .646.09.855.27.209.182.313.453.313.814 0 .362-.104.64-.313.835-.209.194-.494.292-.855.292h-15.855zm24.116 0a1.41 1.41 0 0 1-.94-.334 1.047 1.047 0 0 1-.395-.834v-27.12c0-.389.118-.709.354-.96.237-.25.55-.375.939-.375.417 0 .737.118.96.355.222.236.333.563.333.98v26.035h14.27c.36 0 .646.097.854.292.21.195.313.473.313.834 0 .362-.104.64-.313.835-.208.194-.493.292-.855.292h-15.52zm22.28 0a1.37 1.37 0 0 1-.981-.376 1.216 1.216 0 0 1-.397-.918v-26.827c0-.361.132-.667.397-.918a1.37 1.37 0 0 1 .98-.375h15.854c.362 0 .647.097.856.292.208.195.313.473.313.834 0 .334-.105.598-.313.793-.209.195-.494.292-.856.292h-14.686v11.14h13.852c.362 0 .647.097.855.292.209.195.313.473.313.834 0 .362-.104.64-.313.835-.208.195-.493.292-.855.292h-13.852v11.599h14.686c.362 0 .647.09.856.27.208.182.313.453.313.814 0 .362-.105.64-.313.835-.209.194-.494.292-.856.292h-15.854zm48.897-29.623c.417 0 .744.125.98.376.237.25.355.57.355.96v27.16c0 .39-.111.71-.334.96-.222.25-.528.375-.917.375-.39 0-.682-.118-.877-.354-.194-.237-.292-.563-.292-.98V168.95l-9.888 19.108c-.333.64-.792.96-1.377.96-.584 0-1.043-.32-1.376-.96l-9.972-18.941v22.988c0 .418-.097.744-.292.98-.195.237-.487.355-.876.355-.417 0-.73-.118-.939-.354-.208-.237-.313-.563-.313-.98v-27.162c0-.389.118-.709.355-.96.236-.25.563-.375.98-.375.501 0 .918.32 1.252.96l11.223 21.528 11.056-21.528c.334-.64.751-.96 1.252-.96zm10.305 29.623a1.37 1.37 0 0 1-.98-.376 1.216 1.216 0 0 1-.396-.918v-26.827c0-.361.132-.667.396-.918a1.37 1.37 0 0 1 .98-.375h15.855c.361 0 .646.097.855.292.209.195.313.473.313.834 0 .334-.104.598-.313.793-.209.195-.494.292-.855.292h-14.686v11.14h13.851c.362 0 .647.097.856.292.208.195.313.473.313.834 0 .362-.105.64-.313.835-.209.195-.494.292-.856.292h-13.851v11.599h14.686c.361 0 .646.09.855.27.209.182.313.453.313.814 0 .362-.104.64-.313.835-.209.194-.494.292-.855.292h-15.855zm44.643-29.623c.39 0 .688.118.897.355.208.236.313.563.313.98v27.161c0 .39-.112.71-.334.96-.223.25-.529.375-.918.375-.417 0-.793-.208-1.126-.625l-18.275-24.658v23.948c0 .39-.11.71-.333.96-.223.25-.515.375-.877.375-.417 0-.723-.118-.917-.354-.195-.237-.292-.563-.292-.98v-27.162c0-.389.118-.709.354-.96.237-.25.563-.375.98-.375.446 0 .807.209 1.085.626l18.233 24.616v-23.907c0-.389.111-.709.334-.96.222-.25.514-.375.876-.375zm17.314 29.831c-.389 0-.695-.125-.918-.375-.222-.25-.333-.57-.333-.96v-26.034h-9.638c-.362 0-.647-.097-.855-.292-.209-.195-.313-.473-.313-.835 0-.361.104-.64.313-.834.208-.195.493-.292.855-.292h21.779c.334 0 .612.104.834.313.223.208.334.48.334.813 0 .334-.111.605-.334.814-.222.209-.5.313-.834.313h-9.596v26.034c0 .39-.118.71-.355.96-.236.25-.55.375-.939.375zm24.116.126c-2.059 0-4.04-.327-5.946-.98-1.905-.655-3.4-1.538-4.485-2.65-.361-.306-.542-.71-.542-1.21 0-.306.09-.57.271-.793.18-.222.382-.334.605-.334.278 0 .598.14.96.418 2.614 2.17 5.66 3.254 9.137 3.254 2.53 0 4.485-.508 5.862-1.523 1.376-1.015 2.065-2.455 2.065-4.318 0-1.085-.334-1.961-1.002-2.629-.667-.667-1.515-1.189-2.545-1.564-1.029-.376-2.406-.758-4.13-1.148-2.28-.5-4.124-1.015-5.528-1.543-1.405-.529-2.594-1.328-3.567-2.4-.974-1.07-1.46-2.51-1.46-4.318 0-1.64.437-3.094 1.314-4.36.876-1.265 2.106-2.245 3.692-2.94 1.585-.696 3.407-1.044 5.465-1.044 1.92 0 3.728.313 5.424.939 1.697.626 3.102 1.523 4.214 2.69.362.362.543.766.543 1.21 0 .307-.09.571-.272.794-.18.222-.382.333-.605.333-.278 0-.598-.139-.96-.417-1.501-1.224-2.857-2.072-4.067-2.545-1.21-.473-2.635-.71-4.277-.71-2.475 0-4.408.53-5.799 1.586-1.39 1.057-2.086 2.531-2.086 4.423 0 1.14.306 2.065.918 2.774.612.71 1.412 1.273 2.399 1.69.987.417 2.26.82 3.818 1.21l1.084.25c2.253.557 4.033 1.071 5.34 1.544a8.203 8.203 0 0 1 3.318 2.19c.904.988 1.356 2.316 1.356 3.985 0 1.585-.439 2.997-1.315 4.235-.876 1.237-2.114 2.197-3.713 2.878-1.6.682-3.428 1.023-5.486 1.023z" fill="#FFF" fill-rule="nonzero"/></g></svg>