<svg id="Layer_1" data-name="Layer 1" xmlns="http://www.w3.org/2000/svg" viewBox="0 0 512 512"><defs><style>.cls-4{fill:#687175}</style></defs><path d="M504 120v272a32 32 0 01-32 32H40a32 32 0 01-32-32V120a32 32 0 0132-32h432a32 32 0 0132 32z" fill="#faefde"/><path d="M504 120v8H8v-8a32 32 0 0132-32h432a32 32 0 0132 32z" fill="#fff7f0"/><path d="M504 388a36 36 0 01-36 36H44a36 36 0 01-36-36 4 4 0 014-4h488a4 4 0 014 4z" fill="#efd8be"/><path class="cls-4" d="M472 80H40a40 40 0 00-40 40v272a40 40 0 0040 40h432a40 40 0 0040-40V120a40 40 0 00-40-40zm24 312a24 24 0 01-24 24H40a24 24 0 01-24-24V120a24 24 0 0124-24h432a24 24 0 0124 24z"/><path class="cls-4" d="M96 144a8 8 0 008-8v-16a8 8 0 00-16 0v16a8 8 0 008 8zm40 0a8 8 0 008-8v-16a8 8 0 00-16 0v16a8 8 0 008 8zm40 0a8 8 0 008-8v-16a8 8 0 00-16 0v16a8 8 0 008 8zm40 0a8 8 0 008-8v-16a8 8 0 00-16 0v16a8 8 0 008 8zm-160 0a8 8 0 008-8v-16a8 8 0 00-16 0v16a8 8 0 008 8zm240 0a8 8 0 008-8v-16a8 8 0 00-16 0v16a8 8 0 008 8zm40 0a8 8 0 008-8v-16a8 8 0 00-16 0v16a8 8 0 008 8zm40 0a8 8 0 008-8v-16a8 8 0 00-16 0v16a8 8 0 008 8zm40 0a8 8 0 008-8v-16a8 8 0 00-16 0v16a8 8 0 008 8zm40-32a8 8 0 00-8 8v16a8 8 0 0016 0v-16a8 8 0 00-8-8zm-200 32a8 8 0 008-8v-16a8 8 0 00-16 0v16a8 8 0 008 8zM96 368a8 8 0 00-8 8v16a8 8 0 0016 0v-16a8 8 0 00-8-8zm40 0a8 8 0 00-8 8v16a8 8 0 0016 0v-16a8 8 0 00-8-8zm40 0a8 8 0 00-8 8v16a8 8 0 0016 0v-16a8 8 0 00-8-8zm40 0a8 8 0 00-8 8v16a8 8 0 0016 0v-16a8 8 0 00-8-8zm-160 0a8 8 0 00-8 8v16a8 8 0 0016 0v-16a8 8 0 00-8-8zm240 0a8 8 0 00-8 8v16a8 8 0 0016 0v-16a8 8 0 00-8-8zm40 0a8 8 0 00-8 8v16a8 8 0 0016 0v-16a8 8 0 00-8-8zm40 0a8 8 0 00-8 8v16a8 8 0 0016 0v-16a8 8 0 00-8-8zm40 0a8 8 0 00-8 8v16a8 8 0 0016 0v-16a8 8 0 00-8-8zm40 0a8 8 0 00-8 8v16a8 8 0 0016 0v-16a8 8 0 00-8-8zm-200 0a8 8 0 00-8 8v16a8 8 0 0016 0v-16a8 8 0 00-8-8z"/><path d="M256 341c-7-35-48-61-96-61s-88 26-95 61l1 3h188l2-3z" fill="#eb5424"/><path d="M160 176a45 45 0 0145 45v30a45 45 0 01-45 45 45 45 0 01-45-45v-30a45 45 0 0145-45z" fill="#f9e3ae"/><path class="cls-4" d="M256 344a8 8 0 007-11 106 106 0 00-59-55 70 70 0 0012-38v-16a56 56 0 00-112 0v16a70 70 0 0012 38 106 106 0 00-59 55 8 8 0 1014 7 10 10 0 000-1 89 89 0 0156-48 47 47 0 0066 0 89 89 0 0156 48 8 8 0 007 5zM120 240v-16a40 40 0 0180 0v16c0 22-18 48-40 48s-40-26-40-48zm184-24h80a8 8 0 000-16h-80a8 8 0 000 16zm96 80h-96a8 8 0 000 16h96a8 8 0 000-16zm48-96h-32a8 8 0 000 16h32a8 8 0 000-16zm0 48H304a8 8 0 000 16h144a8 8 0 000-16z"/></svg>